ISO-10303-21;
HEADER;
FILE_DESCRIPTION(('ViewDefinition[DesignTransferView]'),'2;1');
FILE_NAME('/dev/null','2026-09-26T21:46:45+00:00',(''),(''),'IfcOpenShell 0.8.5','IfcOpenShell 0.8.5','Nobody');
FILE_SCHEMA(('IFC4'));
ENDSEC;
DATA;
#1=IFCPROJECT('2Da1_u6Jr24Op0ObSfb3N9',$,'EDIFICIO-YVAN-TRUJILLO-01',$,$,$,$,(#10),#5);
#2=IFCSIUNIT(*,.LENGTHUNIT.,$,.METRE.);
#3=IFCSIUNIT(*,.AREAUNIT.,$,.SQUARE_METRE.);
#4=IFCSIUNIT(*,.VOLUMEUNIT.,$,.CUBIC_METRE.);
#5=IFCUNITASSIGNMENT((#3,#4,#2));
#6=IFCCARTESIANPOINT((0.,0.,0.));
#7=IFCDIRECTION((0.,0.,1.));
#8=IFCDIRECTION((1.,0.,0.));
#9=IFCAXIS2PLACEMENT3D(#6,#7,#8);
#10=IFCGEOMETRICREPRESENTATIONCONTEXT($,'Model',3,1.0000000000000001E-05,#9,$);
#11=IFCGEOMETRICREPRESENTATIONSUBCONTEXT('Body','Model',*,*,*,*,#10,$,.MODEL_VIEW.,$);
#12=IFCGEOMETRICREPRESENTATIONSUBCONTEXT('Annotation','Plan',*,*,*,*,#10,$,.PLAN_VIEW.,$);
#13=IFCSITE('3oG5fv7A54feJDmAmlwiKr',$,'SITE',$,$,$,$,$,$,$,$,$,$,$);
#14=IFCBUILDING('0KWqc_pdv7twd9lp5PzlLm',$,'BUILDING',$,$,$,$,$,$,$,$,$);
#15=IFCBUILDINGSTOREY('2Q_PuuDxX8dvxjgaAeQ0DN',$,'N1',$,'ELEMENT',$,$,$,$,0.);
#16=IFCBUILDINGSTOREY('38VYf_Emz2fQMB$H6Z1gEK',$,'N2',$,'ELEMENT',$,$,$,$,2.7999999999999998);
#17=IFCBUILDINGSTOREY('2H$$8Ka6f8nANeDafGlwHd',$,'TECHO',$,'ELEMENT',$,$,$,$,5.5999999999999996);
#18=IFCRELAGGREGATES('2kIR2On4j088mhrb5ne3Np',$,$,$,#1,(#13));
#19=IFCRELAGGREGATES('2noY_8WbX4shVYPF5JkgFL',$,$,$,#13,(#14));
#20=IFCRELAGGREGATES('29xacSjur8x8Hi$EvSiVwb',$,$,$,#14,(#17,#15,#16));
#21=IFCWALL('02r0GwYgrAuBNQwXjbnl$I',$,'EXT-S-N1','MATERIAL=CONCRETE',$,#43,#37,$,.SOLIDWALL.);
#22=IFCCARTESIANPOINTLIST2D(((0.,0.),(0.,0.20000000000000001),(10.,0.20000000000000001),(10.,0.),(0.,0.)));
#23=IFCINDEXEDPOLYCURVE(#22,$,.F.);
#24=IFCDIRECTION((0.,0.,1.));
#25=IFCARBITRARYCLOSEDPROFILEDEF(.AREA.,$,#23);
#26=IFCCARTESIANPOINT((0.,0.,0.));
#27=IFCDIRECTION((0.,0.,1.));
#28=IFCDIRECTION((1.,0.,0.));
#29=IFCAXIS2PLACEMENT3D(#26,#27,#28);
#30=IFCEXTRUDEDAREASOLID(#25,#29,#24,2.6000000000000001);
#31=IFCSHAPEREPRESENTATION(#11,'Body','SweptSolid',(#30));
#37=IFCPRODUCTDEFINITIONSHAPE($,$,(#31));
#38=IFCRELCONTAINEDINSPATIALSTRUCTURE('2oduTGV0bEDR9PztwzzRnP',$,$,$,(#397,#1288,#871,#500,#489,#110,#798,#809,#88,#132,#21,#154,#955,#386,#44,#66,#1306,#331,#882,#944),#15);
#39=IFCCARTESIANPOINT((0.,0.,0.));
#40=IFCDIRECTION((0.,0.,1.));
#41=IFCDIRECTION((1.,0.,0.));
#42=IFCAXIS2PLACEMENT3D(#39,#40,#41);
#43=IFCLOCALPLACEMENT($,#42);
#44=IFCWALL('1Gc_rrR4X43P_QhVOOc8ya',$,'EXT-E-N1','MATERIAL=CONCRETE',$,#65,#60,$,.SOLIDWALL.);
#45=IFCCARTESIANPOINTLIST2D(((0.,0.),(0.,0.20000000000000001),(10.,0.20000000000000001),(10.,0.),(0.,0.)));
#46=IFCINDEXEDPOLYCURVE(#45,$,.F.);
#47=IFCDIRECTION((0.,0.,1.));
#48=IFCARBITRARYCLOSEDPROFILEDEF(.AREA.,$,#46);
#49=IFCCARTESIANPOINT((0.,0.,0.));
#50=IFCDIRECTION((0.,0.,1.));
#51=IFCDIRECTION((1.,0.,0.));
#52=IFCAXIS2PLACEMENT3D(#49,#50,#51);
#53=IFCEXTRUDEDAREASOLID(#48,#52,#47,2.6000000000000001);
#54=IFCSHAPEREPRESENTATION(#11,'Body','SweptSolid',(#53));
#60=IFCPRODUCTDEFINITIONSHAPE($,$,(#54));
#61=IFCCARTESIANPOINT((10.,0.,0.));
#62=IFCDIRECTION((0.,0.,1.));
#63=IFCDIRECTION((0.,1.,0.));
#64=IFCAXIS2PLACEMENT3D(#61,#62,#63);
#65=IFCLOCALPLACEMENT($,#64);
#66=IFCWALL('2VQYZh1j12BPlFW8kCUyw7',$,'EXT-N-N1','MATERIAL=CONCRETE',$,#87,#82,$,.SOLIDWALL.);
#67=IFCCARTESIANPOINTLIST2D(((0.,0.),(0.,0.20000000000000001),(10.,0.20000000000000001),(10.,0.),(0.,0.)));
#68=IFCINDEXEDPOLYCURVE(#67,$,.F.);
#69=IFCDIRECTION((0.,0.,1.));
#70=IFCARBITRARYCLOSEDPROFILEDEF(.AREA.,$,#68);
#71=IFCCARTESIANPOINT((0.,0.,0.));
#72=IFCDIRECTION((0.,0.,1.));
#73=IFCDIRECTION((1.,0.,0.));
#74=IFCAXIS2PLACEMENT3D(#71,#72,#73);
#75=IFCEXTRUDEDAREASOLID(#70,#74,#69,2.6000000000000001);
#76=IFCSHAPEREPRESENTATION(#11,'Body','SweptSolid',(#75));
#82=IFCPRODUCTDEFINITIONSHAPE($,$,(#76));
#83=IFCCARTESIANPOINT((10.,10.,0.));
#84=IFCDIRECTION((0.,0.,1.));
#85=IFCDIRECTION((-1.,0.,0.));
#86=IFCAXIS2PLACEMENT3D(#83,#84,#85);
#87=IFCLOCALPLACEMENT($,#86);
#88=IFCWALL('1mC66rU8HDlhswU1dFNhZP',$,'EXT-W-N1','MATERIAL=CONCRETE',$,#109,#104,$,.SOLIDWALL.);
#89=IFCCARTESIANPOINTLIST2D(((0.,0.),(0.,0.20000000000000001),(10.,0.20000000000000001),(10.,0.),(0.,0.)));
#90=IFCINDEXEDPOLYCURVE(#89,$,.F.);
#91=IFCDIRECTION((0.,0.,1.));
#92=IFCARBITRARYCLOSEDPROFILEDEF(.AREA.,$,#90);
#93=IFCCARTESIANPOINT((0.,0.,0.));
#94=IFCDIRECTION((0.,0.,1.));
#95=IFCDIRECTION((1.,0.,0.));
#96=IFCAXIS2PLACEMENT3D(#93,#94,#95);
#97=IFCEXTRUDEDAREASOLID(#92,#96,#91,2.6000000000000001);
#98=IFCSHAPEREPRESENTATION(#11,'Body','SweptSolid',(#97));
#104=IFCPRODUCTDEFINITIONSHAPE($,$,(#98));
#105=IFCCARTESIANPOINT((0.,10.,0.));
#106=IFCDIRECTION((0.,0.,1.));
#107=IFCDIRECTION((0.,-1.,0.));
#108=IFCAXIS2PLACEMENT3D(#105,#106,#107);
#109=IFCLOCALPLACEMENT($,#108);
#110=IFCWALL('0Vg$aTisXFxhNlW9WUWbM3',$,'INT-M-N1','MATERIAL=MASONRY',$,#131,#126,$,.PARTITIONING.);
#111=IFCCARTESIANPOINTLIST2D(((0.,0.),(0.,0.14999999999999999),(9.6000000000000014,0.14999999999999999),(9.6000000000000014,0.),(0.,0.)));
#112=IFCINDEXEDPOLYCURVE(#111,$,.F.);
#113=IFCDIRECTION((0.,0.,1.));
#114=IFCARBITRARYCLOSEDPROFILEDEF(.AREA.,$,#112);
#115=IFCCARTESIANPOINT((0.,0.,0.));
#116=IFCDIRECTION((0.,0.,1.));
#117=IFCDIRECTION((1.,0.,0.));
#118=IFCAXIS2PLACEMENT3D(#115,#116,#117);
#119=IFCEXTRUDEDAREASOLID(#114,#118,#113,2.6000000000000001);
#120=IFCSHAPEREPRESENTATION(#11,'Body','SweptSolid',(#119));
#126=IFCPRODUCTDEFINITIONSHAPE($,$,(#120));
#127=IFCCARTESIANPOINT((5.,0.20000000000000001,0.));
#128=IFCDIRECTION((0.,0.,1.));
#129=IFCDIRECTION((0.,1.,0.));
#130=IFCAXIS2PLACEMENT3D(#127,#128,#129);
#131=IFCLOCALPLACEMENT($,#130);
#132=IFCWALL('2BThA33Sj1aRj$Yv9I0dgj',$,'INT-C-N1','MATERIAL=MASONRY',$,#153,#148,$,.PARTITIONING.);
#133=IFCCARTESIANPOINTLIST2D(((0.,0.),(0.,0.14999999999999999),(9.6000000000000014,0.14999999999999999),(9.6000000000000014,0.),(0.,0.)));
#134=IFCINDEXEDPOLYCURVE(#133,$,.F.);
#135=IFCDIRECTION((0.,0.,1.));
#136=IFCARBITRARYCLOSEDPROFILEDEF(.AREA.,$,#134);
#137=IFCCARTESIANPOINT((0.,0.,0.));
#138=IFCDIRECTION((0.,0.,1.));
#139=IFCDIRECTION((1.,0.,0.));
#140=IFCAXIS2PLACEMENT3D(#137,#138,#139);
#141=IFCEXTRUDEDAREASOLID(#136,#140,#135,2.6000000000000001);
#142=IFCSHAPEREPRESENTATION(#11,'Body','SweptSolid',(#141));
#148=IFCPRODUCTDEFINITIONSHAPE($,$,(#142));
#149=IFCCARTESIANPOINT((0.20000000000000001,5.,0.));
#150=IFCDIRECTION((0.,0.,1.));
#151=IFCDIRECTION((1.,0.,0.));
#152=IFCAXIS2PLACEMENT3D(#149,#150,#151);
#153=IFCLOCALPLACEMENT($,#152);
#154=IFCWALL('2cLOMc8fX2tRPxs7LIHnsA',$,'INT-P-N1','MATERIAL=MASONRY',$,#175,#170,$,.PARTITIONING.);
#155=IFCCARTESIANPOINTLIST2D(((0.,0.),(0.,0.14999999999999999),(3.,0.14999999999999999),(3.,0.),(0.,0.)));
#156=IFCINDEXEDPOLYCURVE(#155,$,.F.);
#157=IFCDIRECTION((0.,0.,1.));
#158=IFCARBITRARYCLOSEDPROFILEDEF(.AREA.,$,#156);
#159=IFCCARTESIANPOINT((0.,0.,0.));
#160=IFCDIRECTION((0.,0.,1.));
#161=IFCDIRECTION((1.,0.,0.));
#162=IFCAXIS2PLACEMENT3D(#159,#160,#161);
#163=IFCEXTRUDEDAREASOLID(#158,#162,#157,2.6000000000000001);
#164=IFCSHAPEREPRESENTATION(#11,'Body','SweptSolid',(#163));
#170=IFCPRODUCTDEFINITIONSHAPE($,$,(#164));
#171=IFCCARTESIANPOINT((5.,5.,0.));
#172=IFCDIRECTION((0.,0.,1.));
#173=IFCDIRECTION((1.,0.,0.));
#174=IFCAXIS2PLACEMENT3D(#171,#172,#173);
#175=IFCLOCALPLACEMENT($,#174);
#176=IFCWALL('1$RSLctd9EkQ_R2wDNCtoV',$,'EXT-S-N2','MATERIAL=CONCRETE',$,#198,#192,$,.SOLIDWALL.);
#177=IFCCARTESIANPOINTLIST2D(((0.,0.),(0.,0.20000000000000001),(10.,0.20000000000000001),(10.,0.),(0.,0.)));
#178=IFCINDEXEDPOLYCURVE(#177,$,.F.);
#179=IFCDIRECTION((0.,0.,1.));
#180=IFCARBITRARYCLOSEDPROFILEDEF(.AREA.,$,#178);
#181=IFCCARTESIANPOINT((0.,0.,0.));
#182=IFCDIRECTION((0.,0.,1.));
#183=IFCDIRECTION((1.,0.,0.));
#184=IFCAXIS2PLACEMENT3D(#181,#182,#183);
#185=IFCEXTRUDEDAREASOLID(#180,#184,#179,2.6000000000000001);
#186=IFCSHAPEREPRESENTATION(#11,'Body','SweptSolid',(#185));
#192=IFCPRODUCTDEFINITIONSHAPE($,$,(#186));
#193=IFCRELCONTAINEDINSPATIALSTRUCTURE('0oFnNO8wP4mRd81eQmAByo',$,$,$,(#706,#1090,#1101,#1017,#349,#1028,#176,#592,#603,#199,#243,#221,#265,#287,#309,#695,#1163,#1174),#16);
#194=IFCCARTESIANPOINT((0.,0.,2.7999999999999998));
#195=IFCDIRECTION((0.,0.,1.));
#196=IFCDIRECTION((1.,0.,0.));
#197=IFCAXIS2PLACEMENT3D(#194,#195,#196);
#198=IFCLOCALPLACEMENT($,#197);
#199=IFCWALL('1WCtW3DRr0ChRiOTvVaLGX',$,'EXT-E-N2','MATERIAL=CONCRETE',$,#220,#215,$,.SOLIDWALL.);
#200=IFCCARTESIANPOINTLIST2D(((0.,0.),(0.,0.20000000000000001),(10.,0.20000000000000001),(10.,0.),(0.,0.)));
#201=IFCINDEXEDPOLYCURVE(#200,$,.F.);
#202=IFCDIRECTION((0.,0.,1.));
#203=IFCARBITRARYCLOSEDPROFILEDEF(.AREA.,$,#201);
#204=IFCCARTESIANPOINT((0.,0.,0.));
#205=IFCDIRECTION((0.,0.,1.));
#206=IFCDIRECTION((1.,0.,0.));
#207=IFCAXIS2PLACEMENT3D(#204,#205,#206);
#208=IFCEXTRUDEDAREASOLID(#203,#207,#202,2.6000000000000001);
#209=IFCSHAPEREPRESENTATION(#11,'Body','SweptSolid',(#208));
#215=IFCPRODUCTDEFINITIONSHAPE($,$,(#209));
#216=IFCCARTESIANPOINT((10.,0.,2.7999999999999998));
#217=IFCDIRECTION((0.,0.,1.));
#218=IFCDIRECTION((0.,1.,0.));
#219=IFCAXIS2PLACEMENT3D(#216,#217,#218);
#220=IFCLOCALPLACEMENT($,#219);
#221=IFCWALL('0NDcmLGDL0ggH59KUp3hXU',$,'EXT-N-N2','MATERIAL=CONCRETE',$,#242,#237,$,.SOLIDWALL.);
#222=IFCCARTESIANPOINTLIST2D(((0.,0.),(0.,0.20000000000000001),(10.,0.20000000000000001),(10.,0.),(0.,0.)));
#223=IFCINDEXEDPOLYCURVE(#222,$,.F.);
#224=IFCDIRECTION((0.,0.,1.));
#225=IFCARBITRARYCLOSEDPROFILEDEF(.AREA.,$,#223);
#226=IFCCARTESIANPOINT((0.,0.,0.));
#227=IFCDIRECTION((0.,0.,1.));
#228=IFCDIRECTION((1.,0.,0.));
#229=IFCAXIS2PLACEMENT3D(#226,#227,#228);
#230=IFCEXTRUDEDAREASOLID(#225,#229,#224,2.6000000000000001);
#231=IFCSHAPEREPRESENTATION(#11,'Body','SweptSolid',(#230));
#237=IFCPRODUCTDEFINITIONSHAPE($,$,(#231));
#238=IFCCARTESIANPOINT((10.,10.,2.7999999999999998));
#239=IFCDIRECTION((0.,0.,1.));
#240=IFCDIRECTION((-1.,0.,0.));
#241=IFCAXIS2PLACEMENT3D(#238,#239,#240);
#242=IFCLOCALPLACEMENT($,#241);
#243=IFCWALL('1nNvq4vPbFRBhGOw9C$9vb',$,'EXT-W-N2','MATERIAL=CONCRETE',$,#264,#259,$,.SOLIDWALL.);
#244=IFCCARTESIANPOINTLIST2D(((0.,0.),(0.,0.20000000000000001),(10.,0.20000000000000001),(10.,0.),(0.,0.)));
#245=IFCINDEXEDPOLYCURVE(#244,$,.F.);
#246=IFCDIRECTION((0.,0.,1.));
#247=IFCARBITRARYCLOSEDPROFILEDEF(.AREA.,$,#245);
#248=IFCCARTESIANPOINT((0.,0.,0.));
#249=IFCDIRECTION((0.,0.,1.));
#250=IFCDIRECTION((1.,0.,0.));
#251=IFCAXIS2PLACEMENT3D(#248,#249,#250);
#252=IFCEXTRUDEDAREASOLID(#247,#251,#246,2.6000000000000001);
#253=IFCSHAPEREPRESENTATION(#11,'Body','SweptSolid',(#252));
#259=IFCPRODUCTDEFINITIONSHAPE($,$,(#253));
#260=IFCCARTESIANPOINT((0.,10.,2.7999999999999998));
#261=IFCDIRECTION((0.,0.,1.));
#262=IFCDIRECTION((0.,-1.,0.));
#263=IFCAXIS2PLACEMENT3D(#260,#261,#262);
#264=IFCLOCALPLACEMENT($,#263);
#265=IFCWALL('2WS3H0kTvD0PUSEfw68v5t',$,'INT-M-N2','MATERIAL=MASONRY',$,#286,#281,$,.PARTITIONING.);
#266=IFCCARTESIANPOINTLIST2D(((0.,0.),(0.,0.14999999999999999),(9.6000000000000014,0.14999999999999999),(9.6000000000000014,0.),(0.,0.)));
#267=IFCINDEXEDPOLYCURVE(#266,$,.F.);
#268=IFCDIRECTION((0.,0.,1.));
#269=IFCARBITRARYCLOSEDPROFILEDEF(.AREA.,$,#267);
#270=IFCCARTESIANPOINT((0.,0.,0.));
#271=IFCDIRECTION((0.,0.,1.));
#272=IFCDIRECTION((1.,0.,0.));
#273=IFCAXIS2PLACEMENT3D(#270,#271,#272);
#274=IFCEXTRUDEDAREASOLID(#269,#273,#268,2.6000000000000001);
#275=IFCSHAPEREPRESENTATION(#11,'Body','SweptSolid',(#274));
#281=IFCPRODUCTDEFINITIONSHAPE($,$,(#275));
#282=IFCCARTESIANPOINT((5.,0.20000000000000001,2.7999999999999998));
#283=IFCDIRECTION((0.,0.,1.));
#284=IFCDIRECTION((0.,1.,0.));
#285=IFCAXIS2PLACEMENT3D(#282,#283,#284);
#286=IFCLOCALPLACEMENT($,#285);
#287=IFCWALL('2$Isw3QrvCbvJ0mWjCNy$H',$,'INT-C-N2','MATERIAL=MASONRY',$,#308,#303,$,.PARTITIONING.);
#288=IFCCARTESIANPOINTLIST2D(((0.,0.),(0.,0.14999999999999999),(9.6000000000000014,0.14999999999999999),(9.6000000000000014,0.),(0.,0.)));
#289=IFCINDEXEDPOLYCURVE(#288,$,.F.);
#290=IFCDIRECTION((0.,0.,1.));
#291=IFCARBITRARYCLOSEDPROFILEDEF(.AREA.,$,#289);
#292=IFCCARTESIANPOINT((0.,0.,0.));
#293=IFCDIRECTION((0.,0.,1.));
#294=IFCDIRECTION((1.,0.,0.));
#295=IFCAXIS2PLACEMENT3D(#292,#293,#294);
#296=IFCEXTRUDEDAREASOLID(#291,#295,#290,2.6000000000000001);
#297=IFCSHAPEREPRESENTATION(#11,'Body','SweptSolid',(#296));
#303=IFCPRODUCTDEFINITIONSHAPE($,$,(#297));
#304=IFCCARTESIANPOINT((0.20000000000000001,5.,2.7999999999999998));
#305=IFCDIRECTION((0.,0.,1.));
#306=IFCDIRECTION((1.,0.,0.));
#307=IFCAXIS2PLACEMENT3D(#304,#305,#306);
#308=IFCLOCALPLACEMENT($,#307);
#309=IFCWALL('0k_FnvGb1DMf4UZ$5oDq3i',$,'INT-P-N2','MATERIAL=MASONRY',$,#330,#325,$,.PARTITIONING.);
#310=IFCCARTESIANPOINTLIST2D(((0.,0.),(0.,0.14999999999999999),(3.,0.14999999999999999),(3.,0.),(0.,0.)));
#311=IFCINDEXEDPOLYCURVE(#310,$,.F.);
#312=IFCDIRECTION((0.,0.,1.));
#313=IFCARBITRARYCLOSEDPROFILEDEF(.AREA.,$,#311);
#314=IFCCARTESIANPOINT((0.,0.,0.));
#315=IFCDIRECTION((0.,0.,1.));
#316=IFCDIRECTION((1.,0.,0.));
#317=IFCAXIS2PLACEMENT3D(#314,#315,#316);
#318=IFCEXTRUDEDAREASOLID(#313,#317,#312,2.6000000000000001);
#319=IFCSHAPEREPRESENTATION(#11,'Body','SweptSolid',(#318));
#325=IFCPRODUCTDEFINITIONSHAPE($,$,(#319));
#326=IFCCARTESIANPOINT((5.,5.,2.7999999999999998));
#327=IFCDIRECTION((0.,0.,1.));
#328=IFCDIRECTION((1.,0.,0.));
#329=IFCAXIS2PLACEMENT3D(#326,#327,#328);
#330=IFCLOCALPLACEMENT($,#329);
#331=IFCSLAB('1gzqMHP1rFBf1uW$TWSFtk',$,'SLAB-N1',$,$,#348,#338,$,.FLOOR.);
#332=IFCCARTESIANPOINTLIST2D(((0.,0.),(10.,0.),(10.,10.),(0.,10.),(0.,0.)));
#333=IFCINDEXEDPOLYCURVE(#332,$,$);
#334=IFCDIRECTION((0.,0.,1.));
#335=IFCARBITRARYCLOSEDPROFILEDEF(.AREA.,$,#333);
#336=IFCEXTRUDEDAREASOLID(#335,$,#334,0.20000000000000001);
#337=IFCSHAPEREPRESENTATION(#11,'Body','SweptSolid',(#336));
#338=IFCPRODUCTDEFINITIONSHAPE($,$,(#337));
#344=IFCCARTESIANPOINT((0.,0.,-0.20000000000000001));
#345=IFCDIRECTION((0.,0.,1.));
#346=IFCDIRECTION((1.,0.,0.));
#347=IFCAXIS2PLACEMENT3D(#344,#345,#346);
#348=IFCLOCALPLACEMENT($,#347);
#349=IFCSLAB('3jCIoDgrr0A8h4YDVLN$et',$,'SLAB-N2',$,$,#366,#356,$,.FLOOR.);
#350=IFCCARTESIANPOINTLIST2D(((0.,0.),(10.,0.),(10.,10.),(0.,10.),(0.,0.)));
#351=IFCINDEXEDPOLYCURVE(#350,$,$);
#352=IFCDIRECTION((0.,0.,1.));
#353=IFCARBITRARYCLOSEDPROFILEDEF(.AREA.,$,#351);
#354=IFCEXTRUDEDAREASOLID(#353,$,#352,0.20000000000000001);
#355=IFCSHAPEREPRESENTATION(#11,'Body','SweptSolid',(#354));
#356=IFCPRODUCTDEFINITIONSHAPE($,$,(#355));
#362=IFCCARTESIANPOINT((0.,0.,2.6000000000000001));
#363=IFCDIRECTION((0.,0.,1.));
#364=IFCDIRECTION((1.,0.,0.));
#365=IFCAXIS2PLACEMENT3D(#362,#363,#364);
#366=IFCLOCALPLACEMENT($,#365);
#367=IFCSLAB('09sjTuScXDsQ2eltJzj5ht',$,'SLAB-ROOF',$,$,#385,#374,$,.FLOOR.);
#368=IFCCARTESIANPOINTLIST2D(((0.,0.),(10.,0.),(10.,10.),(0.,10.),(0.,0.)));
#369=IFCINDEXEDPOLYCURVE(#368,$,$);
#370=IFCDIRECTION((0.,0.,1.));
#371=IFCARBITRARYCLOSEDPROFILEDEF(.AREA.,$,#369);
#372=IFCEXTRUDEDAREASOLID(#371,$,#370,0.20000000000000001);
#373=IFCSHAPEREPRESENTATION(#11,'Body','SweptSolid',(#372));
#374=IFCPRODUCTDEFINITIONSHAPE($,$,(#373));
#380=IFCRELCONTAINEDINSPATIALSTRUCTURE('3F0OUWyCb789mzq0K1R6hW',$,$,$,(#367),#17);
#381=IFCCARTESIANPOINT((0.,0.,5.4000000000000004));
#382=IFCDIRECTION((0.,0.,1.));
#383=IFCDIRECTION((1.,0.,0.));
#384=IFCAXIS2PLACEMENT3D(#381,#382,#383);
#385=IFCLOCALPLACEMENT($,#384);
#386=IFCOPENINGELEMENT('2w3nBNBbrC58fOc3Xs_DAy',$,'OPENING-P-1',$,$,#487,$,$,$);
#397=IFCDOOR('2OBSHzwb1FduJidV5eeZTI',$,'P-1',$,$,#481,#471,$,2.1000000000000001,0.90000000000000002,.DOOR.,$,$);
#398=IFCCARTESIANPOINTLIST2D(((0.,0.),(0.,2.1000000000000001),(0.90000000000000002,2.1000000000000001),(0.90000000000000002,0.),(0.875,0.),(0.875,2.0750000000000002),(0.025000000000000001,2.0750000000000002),(0.025000000000000001,0.)));
#399=IFCINDEXEDPOLYCURVE(#398,(IFCLINEINDEX((1,2,3,4,5,6,7,8,1))),$);
#400=IFCARBITRARYCLOSEDPROFILEDEF(.AREA.,$,#399);
#401=IFCCARTESIANPOINT((0.,0.025000000000000001,0.));
#402=IFCDIRECTION((0.,-1.,0.));
#403=IFCDIRECTION((1.,0.,0.));
#404=IFCAXIS2PLACEMENT3D(#401,#402,#403);
#405=IFCDIRECTION((0.,0.,-1.));
#406=IFCEXTRUDEDAREASOLID(#400,#404,#405,0.025000000000000001);
#407=IFCCARTESIANPOINTLIST2D(((0.,0.),(0.,2.1000000000000001),(0.90000000000000002,2.1000000000000001),(0.90000000000000002,0.),(0.84999999999999998,0.),(0.84999999999999998,2.0500000000000003),(0.050000000000000003,2.0500000000000003),(0.050000000000000003,0.)));
#408=IFCINDEXEDPOLYCURVE(#407,(IFCLINEINDEX((1,2,3,4,5,6,7,8,1))),$);
#409=IFCARBITRARYCLOSEDPROFILEDEF(.AREA.,$,#408);
#410=IFCCARTESIANPOINT((0.,0.,0.));
#411=IFCDIRECTION((0.,-1.,0.));
#412=IFCDIRECTION((1.,0.,0.));
#413=IFCAXIS2PLACEMENT3D(#410,#411,#412);
#414=IFCDIRECTION((0.,0.,-1.));
#415=IFCEXTRUDEDAREASOLID(#409,#413,#414,0.025000000000000001);
#416=IFCCARTESIANPOINTLIST2D(((0.,0.),(0.80000000000000004,0.),(0.80000000000000004,0.10000000000000001),(0.,0.10000000000000001)));
#417=IFCINDEXEDPOLYCURVE(#416,(IFCLINEINDEX((1,2,3,4,1))),$);
#418=IFCARBITRARYCLOSEDPROFILEDEF(.AREA.,$,#417);
#419=IFCCARTESIANPOINT((0.050000000000000003,0.,0.));
#420=IFCDIRECTION((0.,0.,1.));
#421=IFCDIRECTION((1.,0.,0.));
#422=IFCAXIS2PLACEMENT3D(#419,#420,#421);
#423=IFCDIRECTION((0.,0.,1.));
#424=IFCEXTRUDEDAREASOLID(#418,#422,#423,0.025000000000000001);
#425=IFCCARTESIANPOINTLIST2D(((0.,0.),(0.,2.125),(0.94999999999999996,2.125),(0.94999999999999996,0.),(0.875,0.),(0.875,2.0499999999999998),(0.074999999999999997,2.0499999999999998),(0.074999999999999997,0.)));
#426=IFCINDEXEDPOLYCURVE(#425,(IFCLINEINDEX((1,2,3,4,5,6,7,8,1))),$);
#427=IFCARBITRARYCLOSEDPROFILEDEF(.AREA.,$,#426);
#428=IFCCARTESIANPOINT((-0.024999999999999994,-0.0050000000000000001,0.));
#429=IFCDIRECTION((0.,-1.,0.));
#430=IFCDIRECTION((1.,0.,0.));
#431=IFCAXIS2PLACEMENT3D(#428,#429,#430);
#432=IFCDIRECTION((0.,0.,-1.));
#433=IFCEXTRUDEDAREASOLID(#427,#431,#432,0.0050000000000000001);
#434=IFCCARTESIANPOINTLIST2D(((0.,0.),(0.,2.125),(0.94999999999999996,2.125),(0.94999999999999996,0.),(0.89999999999999991,0.),(0.89999999999999991,2.0750000000000002),(0.049999999999999996,2.0750000000000002),(0.049999999999999996,0.)));
#435=IFCINDEXEDPOLYCURVE(#434,(IFCLINEINDEX((1,2,3,4,5,6,7,8,1))),$);
#436=IFCARBITRARYCLOSEDPROFILEDEF(.AREA.,$,#435);
#437=IFCCARTESIANPOINT((-0.024999999999999994,0.050000000000000003,0.));
#438=IFCDIRECTION((0.,-1.,0.));
#439=IFCDIRECTION((1.,0.,0.));
#440=IFCAXIS2PLACEMENT3D(#437,#438,#439);
#441=IFCDIRECTION((0.,0.,-1.));
#442=IFCEXTRUDEDAREASOLID(#436,#440,#441,0.0050000000000000001);
#443=IFCCARTESIANPOINTLIST2D(((0.,0.),(0.84999999999999998,0.),(0.84999999999999998,0.035000000000000003),(0.,0.035000000000000003)));
#444=IFCINDEXEDPOLYCURVE(#443,(IFCLINEINDEX((1,2,3,4,1))),$);
#445=IFCARBITRARYCLOSEDPROFILEDEF(.AREA.,$,#444);
#446=IFCCARTESIANPOINT((0.025000000000000001,0.025000000000000001,0.025000000000000001));
#447=IFCDIRECTION((0.,0.,1.));
#448=IFCDIRECTION((1.,0.,0.));
#449=IFCAXIS2PLACEMENT3D(#446,#447,#448);
#450=IFCDIRECTION((0.,0.,1.));
#451=IFCEXTRUDEDAREASOLID(#445,#449,#450,2.0500000000000003);
#452=IFCCARTESIANPOINTLIST2D(((0.,0.),(0.,-0.040000000000000001),(-0.11999999999999988,-0.040000000000000001),(-0.11999999999999988,-0.02),(-0.020000000000000018,-0.02),(-0.020000000000000018,0.)));
#453=IFCINDEXEDPOLYCURVE(#452,(IFCLINEINDEX((1,2,3,4,5,6,1))),$);
#454=IFCARBITRARYCLOSEDPROFILEDEF(.AREA.,$,#453);
#455=IFCCARTESIANPOINT((0.82499999999999996,0.025000000000000001,1.0149999999999999));
#456=IFCDIRECTION((0.,0.,1.));
#457=IFCDIRECTION((1.,0.,0.));
#458=IFCAXIS2PLACEMENT3D(#455,#456,#457);
#459=IFCDIRECTION((0.,0.,1.));
#460=IFCEXTRUDEDAREASOLID(#454,#458,#459,0.02);
#461=IFCEXTRUDEDAREASOLID(#462,#465,#469,0.02);
#462=IFCARBITRARYCLOSEDPROFILEDEF(.AREA.,$,#463);
#463=IFCINDEXEDPOLYCURVE(#464,(IFCLINEINDEX((1,2,3,4,5,6,1))),$);
#464=IFCCARTESIANPOINTLIST2D(((0.,0.),(0.,0.040000000000000001),(-0.11999999999999988,0.040000000000000001),(-0.11999999999999988,0.020000000000000011),(-0.020000000000000018,0.020000000000000011),(-0.020000000000000018,0.)));
#465=IFCAXIS2PLACEMENT3D(#466,#467,#468);
#466=IFCCARTESIANPOINT((0.82499999999999996,0.060000000000000005,1.0149999999999999));
#467=IFCDIRECTION((0.,0.,1.));
#468=IFCDIRECTION((1.,0.,0.));
#469=IFCDIRECTION((0.,0.,1.));
#470=IFCSHAPEREPRESENTATION(#11,'Body','SweptSolid',(#406,#415,#451,#460,#461,#424,#433,#442));
#471=IFCPRODUCTDEFINITIONSHAPE($,$,(#470));
#477=IFCCARTESIANPOINT((4.5499999999999998,0.,0.));
#478=IFCDIRECTION((0.,0.,1.));
#479=IFCDIRECTION((1.,0.,0.));
#480=IFCAXIS2PLACEMENT3D(#477,#478,#479);
#481=IFCLOCALPLACEMENT($,#480);
#482=IFCRELVOIDSELEMENT('18GVIAUI51F8kNyz8VNnxD',$,$,$,#21,#386);
#483=IFCCARTESIANPOINT((4.5499999999999998,0.,0.));
#484=IFCDIRECTION((0.,0.,1.));
#485=IFCDIRECTION((1.,0.,0.));
#486=IFCAXIS2PLACEMENT3D(#483,#484,#485);
#487=IFCLOCALPLACEMENT(#43,#486);
#488=IFCRELFILLSELEMENT('2Z$AP4XP985vWWu0jMZqmd',$,$,$,#386,#397);
#489=IFCOPENINGELEMENT('1S$Ec4t$zEcerAAMRza5zn',$,'OPENING-P-2',$,$,#590,$,$,$);
#500=IFCDOOR('1Y$SWENs94NvP99ByM4lxN',$,'P-2',$,$,#584,#574,$,2.1000000000000001,0.90000000000000002,.DOOR.,$,$);
#501=IFCCARTESIANPOINTLIST2D(((0.,0.),(0.,2.1000000000000001),(0.90000000000000002,2.1000000000000001),(0.90000000000000002,0.),(0.875,0.),(0.875,2.0750000000000002),(0.025000000000000001,2.0750000000000002),(0.025000000000000001,0.)));
#502=IFCINDEXEDPOLYCURVE(#501,(IFCLINEINDEX((1,2,3,4,5,6,7,8,1))),$);
#503=IFCARBITRARYCLOSEDPROFILEDEF(.AREA.,$,#502);
#504=IFCCARTESIANPOINT((0.,0.025000000000000001,0.));
#505=IFCDIRECTION((0.,-1.,0.));
#506=IFCDIRECTION((1.,0.,0.));
#507=IFCAXIS2PLACEMENT3D(#504,#505,#506);
#508=IFCDIRECTION((0.,0.,-1.));
#509=IFCEXTRUDEDAREASOLID(#503,#507,#508,0.025000000000000001);
#510=IFCCARTESIANPOINTLIST2D(((0.,0.),(0.,2.1000000000000001),(0.90000000000000002,2.1000000000000001),(0.90000000000000002,0.),(0.84999999999999998,0.),(0.84999999999999998,2.0500000000000003),(0.050000000000000003,2.0500000000000003),(0.050000000000000003,0.)));
#511=IFCINDEXEDPOLYCURVE(#510,(IFCLINEINDEX((1,2,3,4,5,6,7,8,1))),$);
#512=IFCARBITRARYCLOSEDPROFILEDEF(.AREA.,$,#511);
#513=IFCCARTESIANPOINT((0.,0.,0.));
#514=IFCDIRECTION((0.,-1.,0.));
#515=IFCDIRECTION((1.,0.,0.));
#516=IFCAXIS2PLACEMENT3D(#513,#514,#515);
#517=IFCDIRECTION((0.,0.,-1.));
#518=IFCEXTRUDEDAREASOLID(#512,#516,#517,0.025000000000000001);
#519=IFCCARTESIANPOINTLIST2D(((0.,0.),(0.80000000000000004,0.),(0.80000000000000004,0.10000000000000001),(0.,0.10000000000000001)));
#520=IFCINDEXEDPOLYCURVE(#519,(IFCLINEINDEX((1,2,3,4,1))),$);
#521=IFCARBITRARYCLOSEDPROFILEDEF(.AREA.,$,#520);
#522=IFCCARTESIANPOINT((0.050000000000000003,0.,0.));
#523=IFCDIRECTION((0.,0.,1.));
#524=IFCDIRECTION((1.,0.,0.));
#525=IFCAXIS2PLACEMENT3D(#522,#523,#524);
#526=IFCDIRECTION((0.,0.,1.));
#527=IFCEXTRUDEDAREASOLID(#521,#525,#526,0.025000000000000001);
#528=IFCCARTESIANPOINTLIST2D(((0.,0.),(0.,2.125),(0.94999999999999996,2.125),(0.94999999999999996,0.),(0.875,0.),(0.875,2.0499999999999998),(0.074999999999999997,2.0499999999999998),(0.074999999999999997,0.)));
#529=IFCINDEXEDPOLYCURVE(#528,(IFCLINEINDEX((1,2,3,4,5,6,7,8,1))),$);
#530=IFCARBITRARYCLOSEDPROFILEDEF(.AREA.,$,#529);
#531=IFCCARTESIANPOINT((-0.024999999999999994,-0.0050000000000000001,0.));
#532=IFCDIRECTION((0.,-1.,0.));
#533=IFCDIRECTION((1.,0.,0.));
#534=IFCAXIS2PLACEMENT3D(#531,#532,#533);
#535=IFCDIRECTION((0.,0.,-1.));
#536=IFCEXTRUDEDAREASOLID(#530,#534,#535,0.0050000000000000001);
#537=IFCCARTESIANPOINTLIST2D(((0.,0.),(0.,2.125),(0.94999999999999996,2.125),(0.94999999999999996,0.),(0.89999999999999991,0.),(0.89999999999999991,2.0750000000000002),(0.049999999999999996,2.0750000000000002),(0.049999999999999996,0.)));
#538=IFCINDEXEDPOLYCURVE(#537,(IFCLINEINDEX((1,2,3,4,5,6,7,8,1))),$);
#539=IFCARBITRARYCLOSEDPROFILEDEF(.AREA.,$,#538);
#540=IFCCARTESIANPOINT((-0.024999999999999994,0.050000000000000003,0.));
#541=IFCDIRECTION((0.,-1.,0.));
#542=IFCDIRECTION((1.,0.,0.));
#543=IFCAXIS2PLACEMENT3D(#540,#541,#542);
#544=IFCDIRECTION((0.,0.,-1.));
#545=IFCEXTRUDEDAREASOLID(#539,#543,#544,0.0050000000000000001);
#546=IFCCARTESIANPOINTLIST2D(((0.,0.),(0.84999999999999998,0.),(0.84999999999999998,0.035000000000000003),(0.,0.035000000000000003)));
#547=IFCINDEXEDPOLYCURVE(#546,(IFCLINEINDEX((1,2,3,4,1))),$);
#548=IFCARBITRARYCLOSEDPROFILEDEF(.AREA.,$,#547);
#549=IFCCARTESIANPOINT((0.025000000000000001,0.025000000000000001,0.025000000000000001));
#550=IFCDIRECTION((0.,0.,1.));
#551=IFCDIRECTION((1.,0.,0.));
#552=IFCAXIS2PLACEMENT3D(#549,#550,#551);
#553=IFCDIRECTION((0.,0.,1.));
#554=IFCEXTRUDEDAREASOLID(#548,#552,#553,2.0500000000000003);
#555=IFCCARTESIANPOINTLIST2D(((0.,0.),(0.,-0.040000000000000001),(-0.11999999999999988,-0.040000000000000001),(-0.11999999999999988,-0.02),(-0.020000000000000018,-0.02),(-0.020000000000000018,0.)));
#556=IFCINDEXEDPOLYCURVE(#555,(IFCLINEINDEX((1,2,3,4,5,6,1))),$);
#557=IFCARBITRARYCLOSEDPROFILEDEF(.AREA.,$,#556);
#558=IFCCARTESIANPOINT((0.82499999999999996,0.025000000000000001,1.0149999999999999));
#559=IFCDIRECTION((0.,0.,1.));
#560=IFCDIRECTION((1.,0.,0.));
#561=IFCAXIS2PLACEMENT3D(#558,#559,#560);
#562=IFCDIRECTION((0.,0.,1.));
#563=IFCEXTRUDEDAREASOLID(#557,#561,#562,0.02);
#564=IFCEXTRUDEDAREASOLID(#565,#568,#572,0.02);
#565=IFCARBITRARYCLOSEDPROFILEDEF(.AREA.,$,#566);
#566=IFCINDEXEDPOLYCURVE(#567,(IFCLINEINDEX((1,2,3,4,5,6,1))),$);
#567=IFCCARTESIANPOINTLIST2D(((0.,0.),(0.,0.040000000000000001),(-0.11999999999999988,0.040000000000000001),(-0.11999999999999988,0.020000000000000011),(-0.020000000000000018,0.020000000000000011),(-0.020000000000000018,0.)));
#568=IFCAXIS2PLACEMENT3D(#569,#570,#571);
#569=IFCCARTESIANPOINT((0.82499999999999996,0.060000000000000005,1.0149999999999999));
#570=IFCDIRECTION((0.,0.,1.));
#571=IFCDIRECTION((1.,0.,0.));
#572=IFCDIRECTION((0.,0.,1.));
#573=IFCSHAPEREPRESENTATION(#11,'Body','SweptSolid',(#509,#518,#554,#563,#564,#527,#536,#545));
#574=IFCPRODUCTDEFINITIONSHAPE($,$,(#573));
#580=IFCCARTESIANPOINT((5.,4.7999999999999998,0.));
#581=IFCDIRECTION((0.,0.,1.));
#582=IFCDIRECTION((1.,0.,0.));
#583=IFCAXIS2PLACEMENT3D(#580,#581,#582);
#584=IFCLOCALPLACEMENT($,#583);
#585=IFCRELVOIDSELEMENT('2h38rBlpXD4OH3DT1nW35F',$,$,$,#44,#489);
#586=IFCCARTESIANPOINT((4.7999999999999998,5.,0.));
#587=IFCDIRECTION((0.,0.,1.));
#588=IFCDIRECTION((0.,-1.,0.));
#589=IFCAXIS2PLACEMENT3D(#586,#587,#588);
#590=IFCLOCALPLACEMENT(#65,#589);
#591=IFCRELFILLSELEMENT('3YOl6NmP19ZufFQakRtSvI',$,$,$,#489,#500);
#592=IFCOPENINGELEMENT('37f71Qkgv8lOocH3WvWYbf',$,'OPENING-P-3',$,$,#693,$,$,$);
#603=IFCDOOR('3kKCUb8aL4Munhw9oxPofc',$,'P-3',$,$,#687,#677,$,2.1000000000000001,0.90000000000000002,.DOOR.,$,$);
#604=IFCCARTESIANPOINTLIST2D(((0.,0.),(0.,2.1000000000000001),(0.90000000000000002,2.1000000000000001),(0.90000000000000002,0.),(0.875,0.),(0.875,2.0750000000000002),(0.025000000000000001,2.0750000000000002),(0.025000000000000001,0.)));
#605=IFCINDEXEDPOLYCURVE(#604,(IFCLINEINDEX((1,2,3,4,5,6,7,8,1))),$);
#606=IFCARBITRARYCLOSEDPROFILEDEF(.AREA.,$,#605);
#607=IFCCARTESIANPOINT((0.,0.025000000000000001,0.));
#608=IFCDIRECTION((0.,-1.,0.));
#609=IFCDIRECTION((1.,0.,0.));
#610=IFCAXIS2PLACEMENT3D(#607,#608,#609);
#611=IFCDIRECTION((0.,0.,-1.));
#612=IFCEXTRUDEDAREASOLID(#606,#610,#611,0.025000000000000001);
#613=IFCCARTESIANPOINTLIST2D(((0.,0.),(0.,2.1000000000000001),(0.90000000000000002,2.1000000000000001),(0.90000000000000002,0.),(0.84999999999999998,0.),(0.84999999999999998,2.0500000000000003),(0.050000000000000003,2.0500000000000003),(0.050000000000000003,0.)));
#614=IFCINDEXEDPOLYCURVE(#613,(IFCLINEINDEX((1,2,3,4,5,6,7,8,1))),$);
#615=IFCARBITRARYCLOSEDPROFILEDEF(.AREA.,$,#614);
#616=IFCCARTESIANPOINT((0.,0.,0.));
#617=IFCDIRECTION((0.,-1.,0.));
#618=IFCDIRECTION((1.,0.,0.));
#619=IFCAXIS2PLACEMENT3D(#616,#617,#618);
#620=IFCDIRECTION((0.,0.,-1.));
#621=IFCEXTRUDEDAREASOLID(#615,#619,#620,0.025000000000000001);
#622=IFCCARTESIANPOINTLIST2D(((0.,0.),(0.80000000000000004,0.),(0.80000000000000004,0.10000000000000001),(0.,0.10000000000000001)));
#623=IFCINDEXEDPOLYCURVE(#622,(IFCLINEINDEX((1,2,3,4,1))),$);
#624=IFCARBITRARYCLOSEDPROFILEDEF(.AREA.,$,#623);
#625=IFCCARTESIANPOINT((0.050000000000000003,0.,0.));
#626=IFCDIRECTION((0.,0.,1.));
#627=IFCDIRECTION((1.,0.,0.));
#628=IFCAXIS2PLACEMENT3D(#625,#626,#627);
#629=IFCDIRECTION((0.,0.,1.));
#630=IFCEXTRUDEDAREASOLID(#624,#628,#629,0.025000000000000001);
#631=IFCCARTESIANPOINTLIST2D(((0.,0.),(0.,2.125),(0.94999999999999996,2.125),(0.94999999999999996,0.),(0.875,0.),(0.875,2.0499999999999998),(0.074999999999999997,2.0499999999999998),(0.074999999999999997,0.)));
#632=IFCINDEXEDPOLYCURVE(#631,(IFCLINEINDEX((1,2,3,4,5,6,7,8,1))),$);
#633=IFCARBITRARYCLOSEDPROFILEDEF(.AREA.,$,#632);
#634=IFCCARTESIANPOINT((-0.024999999999999994,-0.0050000000000000001,0.));
#635=IFCDIRECTION((0.,-1.,0.));
#636=IFCDIRECTION((1.,0.,0.));
#637=IFCAXIS2PLACEMENT3D(#634,#635,#636);
#638=IFCDIRECTION((0.,0.,-1.));
#639=IFCEXTRUDEDAREASOLID(#633,#637,#638,0.0050000000000000001);
#640=IFCCARTESIANPOINTLIST2D(((0.,0.),(0.,2.125),(0.94999999999999996,2.125),(0.94999999999999996,0.),(0.89999999999999991,0.),(0.89999999999999991,2.0750000000000002),(0.049999999999999996,2.0750000000000002),(0.049999999999999996,0.)));
#641=IFCINDEXEDPOLYCURVE(#640,(IFCLINEINDEX((1,2,3,4,5,6,7,8,1))),$);
#642=IFCARBITRARYCLOSEDPROFILEDEF(.AREA.,$,#641);
#643=IFCCARTESIANPOINT((-0.024999999999999994,0.050000000000000003,0.));
#644=IFCDIRECTION((0.,-1.,0.));
#645=IFCDIRECTION((1.,0.,0.));
#646=IFCAXIS2PLACEMENT3D(#643,#644,#645);
#647=IFCDIRECTION((0.,0.,-1.));
#648=IFCEXTRUDEDAREASOLID(#642,#646,#647,0.0050000000000000001);
#649=IFCCARTESIANPOINTLIST2D(((0.,0.),(0.84999999999999998,0.),(0.84999999999999998,0.035000000000000003),(0.,0.035000000000000003)));
#650=IFCINDEXEDPOLYCURVE(#649,(IFCLINEINDEX((1,2,3,4,1))),$);
#651=IFCARBITRARYCLOSEDPROFILEDEF(.AREA.,$,#650);
#652=IFCCARTESIANPOINT((0.025000000000000001,0.025000000000000001,0.025000000000000001));
#653=IFCDIRECTION((0.,0.,1.));
#654=IFCDIRECTION((1.,0.,0.));
#655=IFCAXIS2PLACEMENT3D(#652,#653,#654);
#656=IFCDIRECTION((0.,0.,1.));
#657=IFCEXTRUDEDAREASOLID(#651,#655,#656,2.0500000000000003);
#658=IFCCARTESIANPOINTLIST2D(((0.,0.),(0.,-0.040000000000000001),(-0.11999999999999988,-0.040000000000000001),(-0.11999999999999988,-0.02),(-0.020000000000000018,-0.02),(-0.020000000000000018,0.)));
#659=IFCINDEXEDPOLYCURVE(#658,(IFCLINEINDEX((1,2,3,4,5,6,1))),$);
#660=IFCARBITRARYCLOSEDPROFILEDEF(.AREA.,$,#659);
#661=IFCCARTESIANPOINT((0.82499999999999996,0.025000000000000001,1.0149999999999999));
#662=IFCDIRECTION((0.,0.,1.));
#663=IFCDIRECTION((1.,0.,0.));
#664=IFCAXIS2PLACEMENT3D(#661,#662,#663);
#665=IFCDIRECTION((0.,0.,1.));
#666=IFCEXTRUDEDAREASOLID(#660,#664,#665,0.02);
#667=IFCEXTRUDEDAREASOLID(#668,#671,#675,0.02);
#668=IFCARBITRARYCLOSEDPROFILEDEF(.AREA.,$,#669);
#669=IFCINDEXEDPOLYCURVE(#670,(IFCLINEINDEX((1,2,3,4,5,6,1))),$);
#670=IFCCARTESIANPOINTLIST2D(((0.,0.),(0.,0.040000000000000001),(-0.11999999999999988,0.040000000000000001),(-0.11999999999999988,0.020000000000000011),(-0.020000000000000018,0.020000000000000011),(-0.020000000000000018,0.)));
#671=IFCAXIS2PLACEMENT3D(#672,#673,#674);
#672=IFCCARTESIANPOINT((0.82499999999999996,0.060000000000000005,1.0149999999999999));
#673=IFCDIRECTION((0.,0.,1.));
#674=IFCDIRECTION((1.,0.,0.));
#675=IFCDIRECTION((0.,0.,1.));
#676=IFCSHAPEREPRESENTATION(#11,'Body','SweptSolid',(#612,#621,#657,#666,#667,#630,#639,#648));
#677=IFCPRODUCTDEFINITIONSHAPE($,$,(#676));
#683=IFCCARTESIANPOINT((4.5499999999999998,0.,2.7999999999999998));
#684=IFCDIRECTION((0.,0.,1.));
#685=IFCDIRECTION((1.,0.,0.));
#686=IFCAXIS2PLACEMENT3D(#683,#684,#685);
#687=IFCLOCALPLACEMENT($,#686);
#688=IFCRELVOIDSELEMENT('00VuTFb5P9NAbN1SR9ptzA',$,$,$,#66,#592);
#689=IFCCARTESIANPOINT((5.4500000000000002,10.,2.7999999999999998));
#690=IFCDIRECTION((0.,0.,1.));
#691=IFCDIRECTION((-1.,0.,0.));
#692=IFCAXIS2PLACEMENT3D(#689,#690,#691);
#693=IFCLOCALPLACEMENT(#87,#692);
#694=IFCRELFILLSELEMENT('0lCF1rp4DDlOi8hWoj5RwT',$,$,$,#592,#603);
#695=IFCOPENINGELEMENT('1yoB5eoNP8t8lqTgtyM2GH',$,'OPENING-P-4',$,$,#796,$,$,$);
#706=IFCDOOR('2MNuVQ_zH58AKo_bVvK532',$,'P-4',$,$,#790,#780,$,2.1000000000000001,0.90000000000000002,.DOOR.,$,$);
#707=IFCCARTESIANPOINTLIST2D(((0.,0.),(0.,2.1000000000000001),(0.90000000000000002,2.1000000000000001),(0.90000000000000002,0.),(0.875,0.),(0.875,2.0750000000000002),(0.025000000000000001,2.0750000000000002),(0.025000000000000001,0.)));
#708=IFCINDEXEDPOLYCURVE(#707,(IFCLINEINDEX((1,2,3,4,5,6,7,8,1))),$);
#709=IFCARBITRARYCLOSEDPROFILEDEF(.AREA.,$,#708);
#710=IFCCARTESIANPOINT((0.,0.025000000000000001,0.));
#711=IFCDIRECTION((0.,-1.,0.));
#712=IFCDIRECTION((1.,0.,0.));
#713=IFCAXIS2PLACEMENT3D(#710,#711,#712);
#714=IFCDIRECTION((0.,0.,-1.));
#715=IFCEXTRUDEDAREASOLID(#709,#713,#714,0.025000000000000001);
#716=IFCCARTESIANPOINTLIST2D(((0.,0.),(0.,2.1000000000000001),(0.90000000000000002,2.1000000000000001),(0.90000000000000002,0.),(0.84999999999999998,0.),(0.84999999999999998,2.0500000000000003),(0.050000000000000003,2.0500000000000003),(0.050000000000000003,0.)));
#717=IFCINDEXEDPOLYCURVE(#716,(IFCLINEINDEX((1,2,3,4,5,6,7,8,1))),$);
#718=IFCARBITRARYCLOSEDPROFILEDEF(.AREA.,$,#717);
#719=IFCCARTESIANPOINT((0.,0.,0.));
#720=IFCDIRECTION((0.,-1.,0.));
#721=IFCDIRECTION((1.,0.,0.));
#722=IFCAXIS2PLACEMENT3D(#719,#720,#721);
#723=IFCDIRECTION((0.,0.,-1.));
#724=IFCEXTRUDEDAREASOLID(#718,#722,#723,0.025000000000000001);
#725=IFCCARTESIANPOINTLIST2D(((0.,0.),(0.80000000000000004,0.),(0.80000000000000004,0.10000000000000001),(0.,0.10000000000000001)));
#726=IFCINDEXEDPOLYCURVE(#725,(IFCLINEINDEX((1,2,3,4,1))),$);
#727=IFCARBITRARYCLOSEDPROFILEDEF(.AREA.,$,#726);
#728=IFCCARTESIANPOINT((0.050000000000000003,0.,0.));
#729=IFCDIRECTION((0.,0.,1.));
#730=IFCDIRECTION((1.,0.,0.));
#731=IFCAXIS2PLACEMENT3D(#728,#729,#730);
#732=IFCDIRECTION((0.,0.,1.));
#733=IFCEXTRUDEDAREASOLID(#727,#731,#732,0.025000000000000001);
#734=IFCCARTESIANPOINTLIST2D(((0.,0.),(0.,2.125),(0.94999999999999996,2.125),(0.94999999999999996,0.),(0.875,0.),(0.875,2.0499999999999998),(0.074999999999999997,2.0499999999999998),(0.074999999999999997,0.)));
#735=IFCINDEXEDPOLYCURVE(#734,(IFCLINEINDEX((1,2,3,4,5,6,7,8,1))),$);
#736=IFCARBITRARYCLOSEDPROFILEDEF(.AREA.,$,#735);
#737=IFCCARTESIANPOINT((-0.024999999999999994,-0.0050000000000000001,0.));
#738=IFCDIRECTION((0.,-1.,0.));
#739=IFCDIRECTION((1.,0.,0.));
#740=IFCAXIS2PLACEMENT3D(#737,#738,#739);
#741=IFCDIRECTION((0.,0.,-1.));
#742=IFCEXTRUDEDAREASOLID(#736,#740,#741,0.0050000000000000001);
#743=IFCCARTESIANPOINTLIST2D(((0.,0.),(0.,2.125),(0.94999999999999996,2.125),(0.94999999999999996,0.),(0.89999999999999991,0.),(0.89999999999999991,2.0750000000000002),(0.049999999999999996,2.0750000000000002),(0.049999999999999996,0.)));
#744=IFCINDEXEDPOLYCURVE(#743,(IFCLINEINDEX((1,2,3,4,5,6,7,8,1))),$);
#745=IFCARBITRARYCLOSEDPROFILEDEF(.AREA.,$,#744);
#746=IFCCARTESIANPOINT((-0.024999999999999994,0.050000000000000003,0.));
#747=IFCDIRECTION((0.,-1.,0.));
#748=IFCDIRECTION((1.,0.,0.));
#749=IFCAXIS2PLACEMENT3D(#746,#747,#748);
#750=IFCDIRECTION((0.,0.,-1.));
#751=IFCEXTRUDEDAREASOLID(#745,#749,#750,0.0050000000000000001);
#752=IFCCARTESIANPOINTLIST2D(((0.,0.),(0.84999999999999998,0.),(0.84999999999999998,0.035000000000000003),(0.,0.035000000000000003)));
#753=IFCINDEXEDPOLYCURVE(#752,(IFCLINEINDEX((1,2,3,4,1))),$);
#754=IFCARBITRARYCLOSEDPROFILEDEF(.AREA.,$,#753);
#755=IFCCARTESIANPOINT((0.025000000000000001,0.025000000000000001,0.025000000000000001));
#756=IFCDIRECTION((0.,0.,1.));
#757=IFCDIRECTION((1.,0.,0.));
#758=IFCAXIS2PLACEMENT3D(#755,#756,#757);
#759=IFCDIRECTION((0.,0.,1.));
#760=IFCEXTRUDEDAREASOLID(#754,#758,#759,2.0500000000000003);
#761=IFCCARTESIANPOINTLIST2D(((0.,0.),(0.,-0.040000000000000001),(-0.11999999999999988,-0.040000000000000001),(-0.11999999999999988,-0.02),(-0.020000000000000018,-0.02),(-0.020000000000000018,0.)));
#762=IFCINDEXEDPOLYCURVE(#761,(IFCLINEINDEX((1,2,3,4,5,6,1))),$);
#763=IFCARBITRARYCLOSEDPROFILEDEF(.AREA.,$,#762);
#764=IFCCARTESIANPOINT((0.82499999999999996,0.025000000000000001,1.0149999999999999));
#765=IFCDIRECTION((0.,0.,1.));
#766=IFCDIRECTION((1.,0.,0.));
#767=IFCAXIS2PLACEMENT3D(#764,#765,#766);
#768=IFCDIRECTION((0.,0.,1.));
#769=IFCEXTRUDEDAREASOLID(#763,#767,#768,0.02);
#770=IFCEXTRUDEDAREASOLID(#771,#774,#778,0.02);
#771=IFCARBITRARYCLOSEDPROFILEDEF(.AREA.,$,#772);
#772=IFCINDEXEDPOLYCURVE(#773,(IFCLINEINDEX((1,2,3,4,5,6,1))),$);
#773=IFCCARTESIANPOINTLIST2D(((0.,0.),(0.,0.040000000000000001),(-0.11999999999999988,0.040000000000000001),(-0.11999999999999988,0.020000000000000011),(-0.020000000000000018,0.020000000000000011),(-0.020000000000000018,0.)));
#774=IFCAXIS2PLACEMENT3D(#775,#776,#777);
#775=IFCCARTESIANPOINT((0.82499999999999996,0.060000000000000005,1.0149999999999999));
#776=IFCDIRECTION((0.,0.,1.));
#777=IFCDIRECTION((1.,0.,0.));
#778=IFCDIRECTION((0.,0.,1.));
#779=IFCSHAPEREPRESENTATION(#11,'Body','SweptSolid',(#715,#724,#760,#769,#770,#733,#742,#751));
#780=IFCPRODUCTDEFINITIONSHAPE($,$,(#779));
#786=IFCCARTESIANPOINT((5.,4.7999999999999998,2.7999999999999998));
#787=IFCDIRECTION((0.,0.,1.));
#788=IFCDIRECTION((1.,0.,0.));
#789=IFCAXIS2PLACEMENT3D(#786,#787,#788);
#790=IFCLOCALPLACEMENT($,#789);
#791=IFCRELVOIDSELEMENT('14PFvbN7L1GwOAHIJbEdmU',$,$,$,#88,#695);
#792=IFCCARTESIANPOINT((5.2000000000000002,5.,2.7999999999999998));
#793=IFCDIRECTION((0.,0.,1.));
#794=IFCDIRECTION((0.,1.,0.));
#795=IFCAXIS2PLACEMENT3D(#792,#793,#794);
#796=IFCLOCALPLACEMENT(#109,#795);
#797=IFCRELFILLSELEMENT('0aaJc8Nm58NOOH9g6hBOPn',$,$,$,#695,#706);
#798=IFCOPENINGELEMENT('3QsgF2llf1iAPB8fCNgqq6',$,'OPENING-V-1',$,$,#869,$,$,$);
#809=IFCWINDOW('0Nsm5bJyfFbgBpBxVk8snN',$,'V-1',$,$,#863,#853,$,1.2,1.2,.WINDOW.,$,$);
#810=IFCCARTESIANPOINTLIST2D(((0.,0.),(1.2,0.),(1.2,1.2),(0.,1.2)));
#811=IFCINDEXEDPOLYCURVE(#810,(IFCLINEINDEX((1,2,3,4,1))),$);
#812=IFCCARTESIANPOINTLIST2D(((0.025000000000000001,0.025000000000000001),(1.1749999999999998,0.025000000000000001),(1.1749999999999998,1.1749999999999998),(0.025000000000000001,1.1749999999999998)));
#813=IFCINDEXEDPOLYCURVE(#812,(IFCLINEINDEX((1,2,3,4,1))),$);
#814=IFCARBITRARYPROFILEDEFWITHVOIDS(.AREA.,$,#811,(#813));
#815=IFCCARTESIANPOINT((0.,0.089999999999999997,0.));
#816=IFCDIRECTION((0.,-1.,0.));
#817=IFCDIRECTION((1.,0.,0.));
#818=IFCAXIS2PLACEMENT3D(#815,#816,#817);
#819=IFCDIRECTION((0.,0.,-1.));
#820=IFCEXTRUDEDAREASOLID(#814,#818,#819,0.010000000000000002);
#821=IFCCARTESIANPOINTLIST2D(((0.,0.),(1.2,0.),(1.2,1.2),(0.,1.2)));
#822=IFCINDEXEDPOLYCURVE(#821,(IFCLINEINDEX((1,2,3,4,1))),$);
#823=IFCCARTESIANPOINTLIST2D(((0.050000000000000003,0.050000000000000003),(1.1499999999999999,0.050000000000000003),(1.1499999999999999,1.1499999999999999),(0.050000000000000003,1.1499999999999999)));
#824=IFCINDEXEDPOLYCURVE(#823,(IFCLINEINDEX((1,2,3,4,1))),$);
#825=IFCARBITRARYPROFILEDEFWITHVOIDS(.AREA.,$,#822,(#824));
#826=IFCCARTESIANPOINT((0.,0.050000000000000003,0.));
#827=IFCDIRECTION((0.,-1.,0.));
#828=IFCDIRECTION((1.,0.,0.));
#829=IFCAXIS2PLACEMENT3D(#826,#827,#828);
#830=IFCDIRECTION((0.,0.,-1.));
#831=IFCEXTRUDEDAREASOLID(#825,#829,#830,0.040000000000000001);
#832=IFCCARTESIANPOINTLIST2D(((0.,0.),(1.1499999999999999,0.),(1.1499999999999999,1.1499999999999999),(0.,1.1499999999999999)));
#833=IFCINDEXEDPOLYCURVE(#832,(IFCLINEINDEX((1,2,3,4,1))),$);
#834=IFCCARTESIANPOINTLIST2D(((0.035000000000000003,0.035000000000000003),(1.1149999999999998,0.035000000000000003),(1.1149999999999998,1.1149999999999998),(0.035000000000000003,1.1149999999999998)));
#835=IFCINDEXEDPOLYCURVE(#834,(IFCLINEINDEX((1,2,3,4,1))),$);
#836=IFCARBITRARYPROFILEDEFWITHVOIDS(.AREA.,$,#833,(#835));
#837=IFCCARTESIANPOINT((0.025000000000000001,0.089999999999999997,0.025000000000000001));
#838=IFCDIRECTION((0.,-1.,0.));
#839=IFCDIRECTION((1.,0.,0.));
#840=IFCAXIS2PLACEMENT3D(#837,#838,#839);
#841=IFCDIRECTION((0.,0.,-1.));
#842=IFCEXTRUDEDAREASOLID(#836,#840,#841,0.035000000000000003);
#843=IFCINDEXEDPOLYCURVE(#844,(IFCLINEINDEX((1,2,3,4,1))),$);
#844=IFCCARTESIANPOINTLIST2D(((0.035000000000000003,0.035000000000000003),(1.1149999999999998,0.035000000000000003),(1.1149999999999998,1.1149999999999998),(0.035000000000000003,1.1149999999999998)));
#845=IFCARBITRARYCLOSEDPROFILEDEF(.AREA.,$,#843);
#846=IFCCARTESIANPOINT((0.025000000000000001,0.10250000000000001,0.025000000000000001));
#847=IFCDIRECTION((0.,-1.,0.));
#848=IFCDIRECTION((1.,0.,0.));
#849=IFCAXIS2PLACEMENT3D(#846,#847,#848);
#850=IFCDIRECTION((0.,0.,-1.));
#851=IFCEXTRUDEDAREASOLID(#845,#849,#850,0.01);
#852=IFCSHAPEREPRESENTATION(#11,'Body','SweptSolid',(#820,#831,#842,#851));
#853=IFCPRODUCTDEFINITIONSHAPE($,$,(#852));
#859=IFCCARTESIANPOINT((0.29999999999999999,3.,0.90000000000000002));
#860=IFCDIRECTION((0.,0.,1.));
#861=IFCDIRECTION((1.,0.,0.));
#862=IFCAXIS2PLACEMENT3D(#859,#860,#861);
#863=IFCLOCALPLACEMENT($,#862);
#864=IFCRELVOIDSELEMENT('23K1BBJgLCfBRt674iOBON',$,$,$,#88,#798);
#865=IFCCARTESIANPOINT((7.,0.29999999999999999,0.90000000000000002));
#866=IFCDIRECTION((0.,0.,1.));
#867=IFCDIRECTION((0.,1.,0.));
#868=IFCAXIS2PLACEMENT3D(#865,#866,#867);
#869=IFCLOCALPLACEMENT(#109,#868);
#870=IFCRELFILLSELEMENT('2vwYiHwerFq9OC4vG2MXVY',$,$,$,#798,#809);
#871=IFCOPENINGELEMENT('2h1C7ZL2D8a9eNtRflOr1c',$,'OPENING-V-2',$,$,#942,$,$,$);
#882=IFCWINDOW('2vUncVWWj7dO9Lb3Tx2iZk',$,'V-2',$,$,#936,#926,$,1.2,1.2,.WINDOW.,$,$);
#883=IFCCARTESIANPOINTLIST2D(((0.,0.),(1.2,0.),(1.2,1.2),(0.,1.2)));
#884=IFCINDEXEDPOLYCURVE(#883,(IFCLINEINDEX((1,2,3,4,1))),$);
#885=IFCCARTESIANPOINTLIST2D(((0.025000000000000001,0.025000000000000001),(1.1749999999999998,0.025000000000000001),(1.1749999999999998,1.1749999999999998),(0.025000000000000001,1.1749999999999998)));
#886=IFCINDEXEDPOLYCURVE(#885,(IFCLINEINDEX((1,2,3,4,1))),$);
#887=IFCARBITRARYPROFILEDEFWITHVOIDS(.AREA.,$,#884,(#886));
#888=IFCCARTESIANPOINT((0.,0.089999999999999997,0.));
#889=IFCDIRECTION((0.,-1.,0.));
#890=IFCDIRECTION((1.,0.,0.));
#891=IFCAXIS2PLACEMENT3D(#888,#889,#890);
#892=IFCDIRECTION((0.,0.,-1.));
#893=IFCEXTRUDEDAREASOLID(#887,#891,#892,0.010000000000000002);
#894=IFCCARTESIANPOINTLIST2D(((0.,0.),(1.2,0.),(1.2,1.2),(0.,1.2)));
#895=IFCINDEXEDPOLYCURVE(#894,(IFCLINEINDEX((1,2,3,4,1))),$);
#896=IFCCARTESIANPOINTLIST2D(((0.050000000000000003,0.050000000000000003),(1.1499999999999999,0.050000000000000003),(1.1499999999999999,1.1499999999999999),(0.050000000000000003,1.1499999999999999)));
#897=IFCINDEXEDPOLYCURVE(#896,(IFCLINEINDEX((1,2,3,4,1))),$);
#898=IFCARBITRARYPROFILEDEFWITHVOIDS(.AREA.,$,#895,(#897));
#899=IFCCARTESIANPOINT((0.,0.050000000000000003,0.));
#900=IFCDIRECTION((0.,-1.,0.));
#901=IFCDIRECTION((1.,0.,0.));
#902=IFCAXIS2PLACEMENT3D(#899,#900,#901);
#903=IFCDIRECTION((0.,0.,-1.));
#904=IFCEXTRUDEDAREASOLID(#898,#902,#903,0.040000000000000001);
#905=IFCCARTESIANPOINTLIST2D(((0.,0.),(1.1499999999999999,0.),(1.1499999999999999,1.1499999999999999),(0.,1.1499999999999999)));
#906=IFCINDEXEDPOLYCURVE(#905,(IFCLINEINDEX((1,2,3,4,1))),$);
#907=IFCCARTESIANPOINTLIST2D(((0.035000000000000003,0.035000000000000003),(1.1149999999999998,0.035000000000000003),(1.1149999999999998,1.1149999999999998),(0.035000000000000003,1.1149999999999998)));
#908=IFCINDEXEDPOLYCURVE(#907,(IFCLINEINDEX((1,2,3,4,1))),$);
#909=IFCARBITRARYPROFILEDEFWITHVOIDS(.AREA.,$,#906,(#908));
#910=IFCCARTESIANPOINT((0.025000000000000001,0.089999999999999997,0.025000000000000001));
#911=IFCDIRECTION((0.,-1.,0.));
#912=IFCDIRECTION((1.,0.,0.));
#913=IFCAXIS2PLACEMENT3D(#910,#911,#912);
#914=IFCDIRECTION((0.,0.,-1.));
#915=IFCEXTRUDEDAREASOLID(#909,#913,#914,0.035000000000000003);
#916=IFCINDEXEDPOLYCURVE(#917,(IFCLINEINDEX((1,2,3,4,1))),$);
#917=IFCCARTESIANPOINTLIST2D(((0.035000000000000003,0.035000000000000003),(1.1149999999999998,0.035000000000000003),(1.1149999999999998,1.1149999999999998),(0.035000000000000003,1.1149999999999998)));
#918=IFCARBITRARYCLOSEDPROFILEDEF(.AREA.,$,#916);
#919=IFCCARTESIANPOINT((0.025000000000000001,0.10250000000000001,0.025000000000000001));
#920=IFCDIRECTION((0.,-1.,0.));
#921=IFCDIRECTION((1.,0.,0.));
#922=IFCAXIS2PLACEMENT3D(#919,#920,#921);
#923=IFCDIRECTION((0.,0.,-1.));
#924=IFCEXTRUDEDAREASOLID(#918,#922,#923,0.01);
#925=IFCSHAPEREPRESENTATION(#11,'Body','SweptSolid',(#893,#904,#915,#924));
#926=IFCPRODUCTDEFINITIONSHAPE($,$,(#925));
#932=IFCCARTESIANPOINT((9.6999999999999993,3.,0.90000000000000002));
#933=IFCDIRECTION((0.,0.,1.));
#934=IFCDIRECTION((1.,0.,0.));
#935=IFCAXIS2PLACEMENT3D(#932,#933,#934);
#936=IFCLOCALPLACEMENT($,#935);
#937=IFCRELVOIDSELEMENT('0v2Mi3ytH6RB4qJ1ON2jMq',$,$,$,#110,#871);
#938=IFCCARTESIANPOINT((2.7999999999999998,-4.6999999999999993,0.90000000000000002));
#939=IFCDIRECTION((0.,0.,1.));
#940=IFCDIRECTION((0.,-1.,0.));
#941=IFCAXIS2PLACEMENT3D(#938,#939,#940);
#942=IFCLOCALPLACEMENT(#131,#941);
#943=IFCRELFILLSELEMENT('07XwWHH0DFiOzYgSFoKh2o',$,$,$,#871,#882);
#944=IFCOPENINGELEMENT('0Qh11i7hvDa9QII4dTlK98',$,'OPENING-V-3',$,$,#1015,$,$,$);
#955=IFCWINDOW('2MedG$hQL8Kxh1yEb_VK6_',$,'V-3',$,$,#1009,#999,$,1.2,1.2,.WINDOW.,$,$);
#956=IFCCARTESIANPOINTLIST2D(((0.,0.),(1.2,0.),(1.2,1.2),(0.,1.2)));
#957=IFCINDEXEDPOLYCURVE(#956,(IFCLINEINDEX((1,2,3,4,1))),$);
#958=IFCCARTESIANPOINTLIST2D(((0.025000000000000001,0.025000000000000001),(1.1749999999999998,0.025000000000000001),(1.1749999999999998,1.1749999999999998),(0.025000000000000001,1.1749999999999998)));
#959=IFCINDEXEDPOLYCURVE(#958,(IFCLINEINDEX((1,2,3,4,1))),$);
#960=IFCARBITRARYPROFILEDEFWITHVOIDS(.AREA.,$,#957,(#959));
#961=IFCCARTESIANPOINT((0.,0.089999999999999997,0.));
#962=IFCDIRECTION((0.,-1.,0.));
#963=IFCDIRECTION((1.,0.,0.));
#964=IFCAXIS2PLACEMENT3D(#961,#962,#963);
#965=IFCDIRECTION((0.,0.,-1.));
#966=IFCEXTRUDEDAREASOLID(#960,#964,#965,0.010000000000000002);
#967=IFCCARTESIANPOINTLIST2D(((0.,0.),(1.2,0.),(1.2,1.2),(0.,1.2)));
#968=IFCINDEXEDPOLYCURVE(#967,(IFCLINEINDEX((1,2,3,4,1))),$);
#969=IFCCARTESIANPOINTLIST2D(((0.050000000000000003,0.050000000000000003),(1.1499999999999999,0.050000000000000003),(1.1499999999999999,1.1499999999999999),(0.050000000000000003,1.1499999999999999)));
#970=IFCINDEXEDPOLYCURVE(#969,(IFCLINEINDEX((1,2,3,4,1))),$);
#971=IFCARBITRARYPROFILEDEFWITHVOIDS(.AREA.,$,#968,(#970));
#972=IFCCARTESIANPOINT((0.,0.050000000000000003,0.));
#973=IFCDIRECTION((0.,-1.,0.));
#974=IFCDIRECTION((1.,0.,0.));
#975=IFCAXIS2PLACEMENT3D(#972,#973,#974);
#976=IFCDIRECTION((0.,0.,-1.));
#977=IFCEXTRUDEDAREASOLID(#971,#975,#976,0.040000000000000001);
#978=IFCCARTESIANPOINTLIST2D(((0.,0.),(1.1499999999999999,0.),(1.1499999999999999,1.1499999999999999),(0.,1.1499999999999999)));
#979=IFCINDEXEDPOLYCURVE(#978,(IFCLINEINDEX((1,2,3,4,1))),$);
#980=IFCCARTESIANPOINTLIST2D(((0.035000000000000003,0.035000000000000003),(1.1149999999999998,0.035000000000000003),(1.1149999999999998,1.1149999999999998),(0.035000000000000003,1.1149999999999998)));
#981=IFCINDEXEDPOLYCURVE(#980,(IFCLINEINDEX((1,2,3,4,1))),$);
#982=IFCARBITRARYPROFILEDEFWITHVOIDS(.AREA.,$,#979,(#981));
#983=IFCCARTESIANPOINT((0.025000000000000001,0.089999999999999997,0.025000000000000001));
#984=IFCDIRECTION((0.,-1.,0.));
#985=IFCDIRECTION((1.,0.,0.));
#986=IFCAXIS2PLACEMENT3D(#983,#984,#985);
#987=IFCDIRECTION((0.,0.,-1.));
#988=IFCEXTRUDEDAREASOLID(#982,#986,#987,0.035000000000000003);
#989=IFCINDEXEDPOLYCURVE(#990,(IFCLINEINDEX((1,2,3,4,1))),$);
#990=IFCCARTESIANPOINTLIST2D(((0.035000000000000003,0.035000000000000003),(1.1149999999999998,0.035000000000000003),(1.1149999999999998,1.1149999999999998),(0.035000000000000003,1.1149999999999998)));
#991=IFCARBITRARYCLOSEDPROFILEDEF(.AREA.,$,#989);
#992=IFCCARTESIANPOINT((0.025000000000000001,0.10250000000000001,0.025000000000000001));
#993=IFCDIRECTION((0.,-1.,0.));
#994=IFCDIRECTION((1.,0.,0.));
#995=IFCAXIS2PLACEMENT3D(#992,#993,#994);
#996=IFCDIRECTION((0.,0.,-1.));
#997=IFCEXTRUDEDAREASOLID(#991,#995,#996,0.01);
#998=IFCSHAPEREPRESENTATION(#11,'Body','SweptSolid',(#966,#977,#988,#997));
#999=IFCPRODUCTDEFINITIONSHAPE($,$,(#998));
#1005=IFCCARTESIANPOINT((3.,9.6999999999999993,0.90000000000000002));
#1006=IFCDIRECTION((0.,0.,1.));
#1007=IFCDIRECTION((1.,0.,0.));
#1008=IFCAXIS2PLACEMENT3D(#1005,#1006,#1007);
#1009=IFCLOCALPLACEMENT($,#1008);
#1010=IFCRELVOIDSELEMENT('1rq0ZTfxjC1BF2vVyhg1Ei',$,$,$,#132,#944);
#1011=IFCCARTESIANPOINT((2.7999999999999998,4.6999999999999993,0.90000000000000002));
#1012=IFCDIRECTION((0.,0.,1.));
#1013=IFCDIRECTION((1.,0.,0.));
#1014=IFCAXIS2PLACEMENT3D(#1011,#1012,#1013);
#1015=IFCLOCALPLACEMENT(#153,#1014);
#1016=IFCRELFILLSELEMENT('1xZcS0W9LF3hxH0HKW$yAN',$,$,$,#944,#955);
#1017=IFCOPENINGELEMENT('27GxXT3vz0_9vi5DGmY23_',$,'OPENING-V-4',$,$,#1088,$,$,$);
#1028=IFCWINDOW('27e2ZIBMrEk8Tz3mGLjv1w',$,'V-4',$,$,#1082,#1072,$,1.2,1.2,.WINDOW.,$,$);
#1029=IFCCARTESIANPOINTLIST2D(((0.,0.),(1.2,0.),(1.2,1.2),(0.,1.2)));
#1030=IFCINDEXEDPOLYCURVE(#1029,(IFCLINEINDEX((1,2,3,4,1))),$);
#1031=IFCCARTESIANPOINTLIST2D(((0.025000000000000001,0.025000000000000001),(1.1749999999999998,0.025000000000000001),(1.1749999999999998,1.1749999999999998),(0.025000000000000001,1.1749999999999998)));
#1032=IFCINDEXEDPOLYCURVE(#1031,(IFCLINEINDEX((1,2,3,4,1))),$);
#1033=IFCARBITRARYPROFILEDEFWITHVOIDS(.AREA.,$,#1030,(#1032));
#1034=IFCCARTESIANPOINT((0.,0.089999999999999997,0.));
#1035=IFCDIRECTION((0.,-1.,0.));
#1036=IFCDIRECTION((1.,0.,0.));
#1037=IFCAXIS2PLACEMENT3D(#1034,#1035,#1036);
#1038=IFCDIRECTION((0.,0.,-1.));
#1039=IFCEXTRUDEDAREASOLID(#1033,#1037,#1038,0.010000000000000002);
#1040=IFCCARTESIANPOINTLIST2D(((0.,0.),(1.2,0.),(1.2,1.2),(0.,1.2)));
#1041=IFCINDEXEDPOLYCURVE(#1040,(IFCLINEINDEX((1,2,3,4,1))),$);
#1042=IFCCARTESIANPOINTLIST2D(((0.050000000000000003,0.050000000000000003),(1.1499999999999999,0.050000000000000003),(1.1499999999999999,1.1499999999999999),(0.050000000000000003,1.1499999999999999)));
#1043=IFCINDEXEDPOLYCURVE(#1042,(IFCLINEINDEX((1,2,3,4,1))),$);
#1044=IFCARBITRARYPROFILEDEFWITHVOIDS(.AREA.,$,#1041,(#1043));
#1045=IFCCARTESIANPOINT((0.,0.050000000000000003,0.));
#1046=IFCDIRECTION((0.,-1.,0.));
#1047=IFCDIRECTION((1.,0.,0.));
#1048=IFCAXIS2PLACEMENT3D(#1045,#1046,#1047);
#1049=IFCDIRECTION((0.,0.,-1.));
#1050=IFCEXTRUDEDAREASOLID(#1044,#1048,#1049,0.040000000000000001);
#1051=IFCCARTESIANPOINTLIST2D(((0.,0.),(1.1499999999999999,0.),(1.1499999999999999,1.1499999999999999),(0.,1.1499999999999999)));
#1052=IFCINDEXEDPOLYCURVE(#1051,(IFCLINEINDEX((1,2,3,4,1))),$);
#1053=IFCCARTESIANPOINTLIST2D(((0.035000000000000003,0.035000000000000003),(1.1149999999999998,0.035000000000000003),(1.1149999999999998,1.1149999999999998),(0.035000000000000003,1.1149999999999998)));
#1054=IFCINDEXEDPOLYCURVE(#1053,(IFCLINEINDEX((1,2,3,4,1))),$);
#1055=IFCARBITRARYPROFILEDEFWITHVOIDS(.AREA.,$,#1052,(#1054));
#1056=IFCCARTESIANPOINT((0.025000000000000001,0.089999999999999997,0.025000000000000001));
#1057=IFCDIRECTION((0.,-1.,0.));
#1058=IFCDIRECTION((1.,0.,0.));
#1059=IFCAXIS2PLACEMENT3D(#1056,#1057,#1058);
#1060=IFCDIRECTION((0.,0.,-1.));
#1061=IFCEXTRUDEDAREASOLID(#1055,#1059,#1060,0.035000000000000003);
#1062=IFCINDEXEDPOLYCURVE(#1063,(IFCLINEINDEX((1,2,3,4,1))),$);
#1063=IFCCARTESIANPOINTLIST2D(((0.035000000000000003,0.035000000000000003),(1.1149999999999998,0.035000000000000003),(1.1149999999999998,1.1149999999999998),(0.035000000000000003,1.1149999999999998)));
#1064=IFCARBITRARYCLOSEDPROFILEDEF(.AREA.,$,#1062);
#1065=IFCCARTESIANPOINT((0.025000000000000001,0.10250000000000001,0.025000000000000001));
#1066=IFCDIRECTION((0.,-1.,0.));
#1067=IFCDIRECTION((1.,0.,0.));
#1068=IFCAXIS2PLACEMENT3D(#1065,#1066,#1067);
#1069=IFCDIRECTION((0.,0.,-1.));
#1070=IFCEXTRUDEDAREASOLID(#1064,#1068,#1069,0.01);
#1071=IFCSHAPEREPRESENTATION(#11,'Body','SweptSolid',(#1039,#1050,#1061,#1070));
#1072=IFCPRODUCTDEFINITIONSHAPE($,$,(#1071));
#1078=IFCCARTESIANPOINT((0.29999999999999999,3.,3.6999999999999997));
#1079=IFCDIRECTION((0.,0.,1.));
#1080=IFCDIRECTION((1.,0.,0.));
#1081=IFCAXIS2PLACEMENT3D(#1078,#1079,#1080);
#1082=IFCLOCALPLACEMENT($,#1081);
#1083=IFCRELVOIDSELEMENT('2cbRelsC90VR0_mJbUdPwp',$,$,$,#154,#1017);
#1084=IFCCARTESIANPOINT((-4.7000000000000002,-2.,3.6999999999999997));
#1085=IFCDIRECTION((0.,0.,1.));
#1086=IFCDIRECTION((1.,0.,0.));
#1087=IFCAXIS2PLACEMENT3D(#1084,#1085,#1086);
#1088=IFCLOCALPLACEMENT(#175,#1087);
#1089=IFCRELFILLSELEMENT('1T7UrmcbfDGwUHgYFrusFx',$,$,$,#1017,#1028);
#1090=IFCOPENINGELEMENT('3z24Wjp9T0MuCd5GsP87WE',$,'OPENING-V-5',$,$,#1161,$,$,$);
#1101=IFCWINDOW('0Fu6O1vOzE39aYVAQkkrHn',$,'V-5',$,$,#1155,#1145,$,1.2,1.2,.WINDOW.,$,$);
#1102=IFCCARTESIANPOINTLIST2D(((0.,0.),(1.2,0.),(1.2,1.2),(0.,1.2)));
#1103=IFCINDEXEDPOLYCURVE(#1102,(IFCLINEINDEX((1,2,3,4,1))),$);
#1104=IFCCARTESIANPOINTLIST2D(((0.025000000000000001,0.025000000000000001),(1.1749999999999998,0.025000000000000001),(1.1749999999999998,1.1749999999999998),(0.025000000000000001,1.1749999999999998)));
#1105=IFCINDEXEDPOLYCURVE(#1104,(IFCLINEINDEX((1,2,3,4,1))),$);
#1106=IFCARBITRARYPROFILEDEFWITHVOIDS(.AREA.,$,#1103,(#1105));
#1107=IFCCARTESIANPOINT((0.,0.089999999999999997,0.));
#1108=IFCDIRECTION((0.,-1.,0.));
#1109=IFCDIRECTION((1.,0.,0.));
#1110=IFCAXIS2PLACEMENT3D(#1107,#1108,#1109);
#1111=IFCDIRECTION((0.,0.,-1.));
#1112=IFCEXTRUDEDAREASOLID(#1106,#1110,#1111,0.010000000000000002);
#1113=IFCCARTESIANPOINTLIST2D(((0.,0.),(1.2,0.),(1.2,1.2),(0.,1.2)));
#1114=IFCINDEXEDPOLYCURVE(#1113,(IFCLINEINDEX((1,2,3,4,1))),$);
#1115=IFCCARTESIANPOINTLIST2D(((0.050000000000000003,0.050000000000000003),(1.1499999999999999,0.050000000000000003),(1.1499999999999999,1.1499999999999999),(0.050000000000000003,1.1499999999999999)));
#1116=IFCINDEXEDPOLYCURVE(#1115,(IFCLINEINDEX((1,2,3,4,1))),$);
#1117=IFCARBITRARYPROFILEDEFWITHVOIDS(.AREA.,$,#1114,(#1116));
#1118=IFCCARTESIANPOINT((0.,0.050000000000000003,0.));
#1119=IFCDIRECTION((0.,-1.,0.));
#1120=IFCDIRECTION((1.,0.,0.));
#1121=IFCAXIS2PLACEMENT3D(#1118,#1119,#1120);
#1122=IFCDIRECTION((0.,0.,-1.));
#1123=IFCEXTRUDEDAREASOLID(#1117,#1121,#1122,0.040000000000000001);
#1124=IFCCARTESIANPOINTLIST2D(((0.,0.),(1.1499999999999999,0.),(1.1499999999999999,1.1499999999999999),(0.,1.1499999999999999)));
#1125=IFCINDEXEDPOLYCURVE(#1124,(IFCLINEINDEX((1,2,3,4,1))),$);
#1126=IFCCARTESIANPOINTLIST2D(((0.035000000000000003,0.035000000000000003),(1.1149999999999998,0.035000000000000003),(1.1149999999999998,1.1149999999999998),(0.035000000000000003,1.1149999999999998)));
#1127=IFCINDEXEDPOLYCURVE(#1126,(IFCLINEINDEX((1,2,3,4,1))),$);
#1128=IFCARBITRARYPROFILEDEFWITHVOIDS(.AREA.,$,#1125,(#1127));
#1129=IFCCARTESIANPOINT((0.025000000000000001,0.089999999999999997,0.025000000000000001));
#1130=IFCDIRECTION((0.,-1.,0.));
#1131=IFCDIRECTION((1.,0.,0.));
#1132=IFCAXIS2PLACEMENT3D(#1129,#1130,#1131);
#1133=IFCDIRECTION((0.,0.,-1.));
#1134=IFCEXTRUDEDAREASOLID(#1128,#1132,#1133,0.035000000000000003);
#1135=IFCINDEXEDPOLYCURVE(#1136,(IFCLINEINDEX((1,2,3,4,1))),$);
#1136=IFCCARTESIANPOINTLIST2D(((0.035000000000000003,0.035000000000000003),(1.1149999999999998,0.035000000000000003),(1.1149999999999998,1.1149999999999998),(0.035000000000000003,1.1149999999999998)));
#1137=IFCARBITRARYCLOSEDPROFILEDEF(.AREA.,$,#1135);
#1138=IFCCARTESIANPOINT((0.025000000000000001,0.10250000000000001,0.025000000000000001));
#1139=IFCDIRECTION((0.,-1.,0.));
#1140=IFCDIRECTION((1.,0.,0.));
#1141=IFCAXIS2PLACEMENT3D(#1138,#1139,#1140);
#1142=IFCDIRECTION((0.,0.,-1.));
#1143=IFCEXTRUDEDAREASOLID(#1137,#1141,#1142,0.01);
#1144=IFCSHAPEREPRESENTATION(#11,'Body','SweptSolid',(#1112,#1123,#1134,#1143));
#1145=IFCPRODUCTDEFINITIONSHAPE($,$,(#1144));
#1151=IFCCARTESIANPOINT((9.6999999999999993,3.,3.6999999999999997));
#1152=IFCDIRECTION((0.,0.,1.));
#1153=IFCDIRECTION((1.,0.,0.));
#1154=IFCAXIS2PLACEMENT3D(#1151,#1152,#1153);
#1155=IFCLOCALPLACEMENT($,#1154);
#1156=IFCRELVOIDSELEMENT('1uv4T8mM175AhtiezqILB1',$,$,$,#176,#1090);
#1157=IFCCARTESIANPOINT((9.6999999999999993,3.,0.89999999999999991));
#1158=IFCDIRECTION((0.,0.,1.));
#1159=IFCDIRECTION((1.,0.,0.));
#1160=IFCAXIS2PLACEMENT3D(#1157,#1158,#1159);
#1161=IFCLOCALPLACEMENT(#198,#1160);
#1162=IFCRELFILLSELEMENT('1ygodEljv3EeE1VucHEFs7',$,$,$,#1090,#1101);
#1163=IFCOPENINGELEMENT('045ToO6dv8IgH5u_84mKFJ',$,'OPENING-V-6',$,$,#1234,$,$,$);
#1174=IFCWINDOW('3aIQ4mmU16Cfyh$PxjDuxY',$,'V-6',$,$,#1228,#1218,$,1.2,1.2,.WINDOW.,$,$);
#1175=IFCCARTESIANPOINTLIST2D(((0.,0.),(1.2,0.),(1.2,1.2),(0.,1.2)));
#1176=IFCINDEXEDPOLYCURVE(#1175,(IFCLINEINDEX((1,2,3,4,1))),$);
#1177=IFCCARTESIANPOINTLIST2D(((0.025000000000000001,0.025000000000000001),(1.1749999999999998,0.025000000000000001),(1.1749999999999998,1.1749999999999998),(0.025000000000000001,1.1749999999999998)));
#1178=IFCINDEXEDPOLYCURVE(#1177,(IFCLINEINDEX((1,2,3,4,1))),$);
#1179=IFCARBITRARYPROFILEDEFWITHVOIDS(.AREA.,$,#1176,(#1178));
#1180=IFCCARTESIANPOINT((0.,0.089999999999999997,0.));
#1181=IFCDIRECTION((0.,-1.,0.));
#1182=IFCDIRECTION((1.,0.,0.));
#1183=IFCAXIS2PLACEMENT3D(#1180,#1181,#1182);
#1184=IFCDIRECTION((0.,0.,-1.));
#1185=IFCEXTRUDEDAREASOLID(#1179,#1183,#1184,0.010000000000000002);
#1186=IFCCARTESIANPOINTLIST2D(((0.,0.),(1.2,0.),(1.2,1.2),(0.,1.2)));
#1187=IFCINDEXEDPOLYCURVE(#1186,(IFCLINEINDEX((1,2,3,4,1))),$);
#1188=IFCCARTESIANPOINTLIST2D(((0.050000000000000003,0.050000000000000003),(1.1499999999999999,0.050000000000000003),(1.1499999999999999,1.1499999999999999),(0.050000000000000003,1.1499999999999999)));
#1189=IFCINDEXEDPOLYCURVE(#1188,(IFCLINEINDEX((1,2,3,4,1))),$);
#1190=IFCARBITRARYPROFILEDEFWITHVOIDS(.AREA.,$,#1187,(#1189));
#1191=IFCCARTESIANPOINT((0.,0.050000000000000003,0.));
#1192=IFCDIRECTION((0.,-1.,0.));
#1193=IFCDIRECTION((1.,0.,0.));
#1194=IFCAXIS2PLACEMENT3D(#1191,#1192,#1193);
#1195=IFCDIRECTION((0.,0.,-1.));
#1196=IFCEXTRUDEDAREASOLID(#1190,#1194,#1195,0.040000000000000001);
#1197=IFCCARTESIANPOINTLIST2D(((0.,0.),(1.1499999999999999,0.),(1.1499999999999999,1.1499999999999999),(0.,1.1499999999999999)));
#1198=IFCINDEXEDPOLYCURVE(#1197,(IFCLINEINDEX((1,2,3,4,1))),$);
#1199=IFCCARTESIANPOINTLIST2D(((0.035000000000000003,0.035000000000000003),(1.1149999999999998,0.035000000000000003),(1.1149999999999998,1.1149999999999998),(0.035000000000000003,1.1149999999999998)));
#1200=IFCINDEXEDPOLYCURVE(#1199,(IFCLINEINDEX((1,2,3,4,1))),$);
#1201=IFCARBITRARYPROFILEDEFWITHVOIDS(.AREA.,$,#1198,(#1200));
#1202=IFCCARTESIANPOINT((0.025000000000000001,0.089999999999999997,0.025000000000000001));
#1203=IFCDIRECTION((0.,-1.,0.));
#1204=IFCDIRECTION((1.,0.,0.));
#1205=IFCAXIS2PLACEMENT3D(#1202,#1203,#1204);
#1206=IFCDIRECTION((0.,0.,-1.));
#1207=IFCEXTRUDEDAREASOLID(#1201,#1205,#1206,0.035000000000000003);
#1208=IFCINDEXEDPOLYCURVE(#1209,(IFCLINEINDEX((1,2,3,4,1))),$);
#1209=IFCCARTESIANPOINTLIST2D(((0.035000000000000003,0.035000000000000003),(1.1149999999999998,0.035000000000000003),(1.1149999999999998,1.1149999999999998),(0.035000000000000003,1.1149999999999998)));
#1210=IFCARBITRARYCLOSEDPROFILEDEF(.AREA.,$,#1208);
#1211=IFCCARTESIANPOINT((0.025000000000000001,0.10250000000000001,0.025000000000000001));
#1212=IFCDIRECTION((0.,-1.,0.));
#1213=IFCDIRECTION((1.,0.,0.));
#1214=IFCAXIS2PLACEMENT3D(#1211,#1212,#1213);
#1215=IFCDIRECTION((0.,0.,-1.));
#1216=IFCEXTRUDEDAREASOLID(#1210,#1214,#1215,0.01);
#1217=IFCSHAPEREPRESENTATION(#11,'Body','SweptSolid',(#1185,#1196,#1207,#1216));
#1218=IFCPRODUCTDEFINITIONSHAPE($,$,(#1217));
#1224=IFCCARTESIANPOINT((3.,9.6999999999999993,3.6999999999999997));
#1225=IFCDIRECTION((0.,0.,1.));
#1226=IFCDIRECTION((1.,0.,0.));
#1227=IFCAXIS2PLACEMENT3D(#1224,#1225,#1226);
#1228=IFCLOCALPLACEMENT($,#1227);
#1229=IFCRELVOIDSELEMENT('3VP_f9o1zE2hiteRdzKYhh',$,$,$,#199,#1163);
#1230=IFCCARTESIANPOINT((9.6999999999999993,7.,0.89999999999999991));
#1231=IFCDIRECTION((0.,0.,1.));
#1232=IFCDIRECTION((0.,-1.,0.));
#1233=IFCAXIS2PLACEMENT3D(#1230,#1231,#1232);
#1234=IFCLOCALPLACEMENT(#220,#1233);
#1235=IFCRELFILLSELEMENT('0pWTnrFAn2agplAz51$YBd',$,$,$,#1163,#1174);
#1236=IFCSPACE('0P$mTbNovCYeRAmFNpPcDA',$,'Sala','AREA=17.64 m2',$,#1248,#1243,'Sala principal',$,$,$);
#1237=IFCCARTESIANPOINTLIST2D(((0.,0.),(4.2000000000000002,0.),(4.2000000000000002,4.2000000000000002),(0.,4.2000000000000002),(0.,0.)));
#1238=IFCINDEXEDPOLYCURVE(#1237,$,$);
#1239=IFCDIRECTION((0.,0.,1.));
#1240=IFCARBITRARYCLOSEDPROFILEDEF(.AREA.,$,#1238);
#1241=IFCEXTRUDEDAREASOLID(#1240,$,#1239,0.10000000000000001);
#1242=IFCSHAPEREPRESENTATION(#11,'Body','SweptSolid',(#1241));
#1243=IFCPRODUCTDEFINITIONSHAPE($,$,(#1242));
#1244=IFCCARTESIANPOINT((0.40000000000000002,0.40000000000000002,0.));
#1245=IFCDIRECTION((0.,0.,1.));
#1246=IFCDIRECTION((1.,0.,0.));
#1247=IFCAXIS2PLACEMENT3D(#1244,#1245,#1246);
#1248=IFCLOCALPLACEMENT($,#1247);
#1249=IFCSPACE('1gsARLvmzDAuxAP2qrlFZx',$,'Cocina','AREA=18.48 m2',$,#1261,#1256,'Cocina y comedor',$,$,$);
#1250=IFCCARTESIANPOINTLIST2D(((0.,0.),(4.4000000000000004,0.),(4.4000000000000004,4.2000000000000002),(0.,4.2000000000000002),(0.,0.)));
#1251=IFCINDEXEDPOLYCURVE(#1250,$,$);
#1252=IFCDIRECTION((0.,0.,1.));
#1253=IFCARBITRARYCLOSEDPROFILEDEF(.AREA.,$,#1251);
#1254=IFCEXTRUDEDAREASOLID(#1253,$,#1252,0.10000000000000001);
#1255=IFCSHAPEREPRESENTATION(#11,'Body','SweptSolid',(#1254));
#1256=IFCPRODUCTDEFINITIONSHAPE($,$,(#1255));
#1257=IFCCARTESIANPOINT((5.2000000000000002,0.40000000000000002,0.));
#1258=IFCDIRECTION((0.,0.,1.));
#1259=IFCDIRECTION((1.,0.,0.));
#1260=IFCAXIS2PLACEMENT3D(#1257,#1258,#1259);
#1261=IFCLOCALPLACEMENT($,#1260);
#1262=IFCSPACE('3A$Ui5HUT8ffFLtEalmDce',$,'Dormitorio','AREA=18.48 m2',$,#1274,#1269,'Dormitorio principal',$,$,$);
#1263=IFCCARTESIANPOINTLIST2D(((0.,0.),(4.2000000000000002,0.),(4.2000000000000002,4.4000000000000004),(0.,4.4000000000000004),(0.,0.)));
#1264=IFCINDEXEDPOLYCURVE(#1263,$,$);
#1265=IFCDIRECTION((0.,0.,1.));
#1266=IFCARBITRARYCLOSEDPROFILEDEF(.AREA.,$,#1264);
#1267=IFCEXTRUDEDAREASOLID(#1266,$,#1265,0.10000000000000001);
#1268=IFCSHAPEREPRESENTATION(#11,'Body','SweptSolid',(#1267));
#1269=IFCPRODUCTDEFINITIONSHAPE($,$,(#1268));
#1270=IFCCARTESIANPOINT((0.40000000000000002,5.2000000000000002,2.7999999999999998));
#1271=IFCDIRECTION((0.,0.,1.));
#1272=IFCDIRECTION((1.,0.,0.));
#1273=IFCAXIS2PLACEMENT3D(#1270,#1271,#1272);
#1274=IFCLOCALPLACEMENT($,#1273);
#1275=IFCSPACE('1udCWKr7jAqxYIXJ2ebVk6',$,'Patio','AREA=19.36 m2',$,#1287,#1282,'Patio interior descubierto',$,$,$);
#1276=IFCCARTESIANPOINTLIST2D(((0.,0.),(4.4000000000000004,0.),(4.4000000000000004,4.4000000000000004),(0.,4.4000000000000004),(0.,0.)));
#1277=IFCINDEXEDPOLYCURVE(#1276,$,$);
#1278=IFCDIRECTION((0.,0.,1.));
#1279=IFCARBITRARYCLOSEDPROFILEDEF(.AREA.,$,#1277);
#1280=IFCEXTRUDEDAREASOLID(#1279,$,#1278,0.10000000000000001);
#1281=IFCSHAPEREPRESENTATION(#11,'Body','SweptSolid',(#1280));
#1282=IFCPRODUCTDEFINITIONSHAPE($,$,(#1281));
#1283=IFCCARTESIANPOINT((5.2000000000000002,5.2000000000000002,2.7999999999999998));
#1284=IFCDIRECTION((0.,0.,1.));
#1285=IFCDIRECTION((1.,0.,0.));
#1286=IFCAXIS2PLACEMENT3D(#1283,#1284,#1285);
#1287=IFCLOCALPLACEMENT($,#1286);
#1288=IFCSTAIR('1k2m5hGt15YAf41yQFlHGM',$,'ESC-1','14 pelda\X2\00F1\X0\os; ancho 1.00 m; conecta N1-N2','STRAIGHT_RUN',#1305,#1295,$,.USERDEFINED.);
#1289=IFCCARTESIANPOINTLIST2D(((0.,0.),(1.,0.),(1.,1.),(0.,1.),(0.,0.)));
#1290=IFCINDEXEDPOLYCURVE(#1289,$,$);
#1291=IFCDIRECTION((0.,0.,1.));
#1292=IFCARBITRARYCLOSEDPROFILEDEF(.AREA.,$,#1290);
#1293=IFCEXTRUDEDAREASOLID(#1292,$,#1291,2.7999999999999998);
#1294=IFCSHAPEREPRESENTATION(#11,'Body','SweptSolid',(#1293));
#1295=IFCPRODUCTDEFINITIONSHAPE($,$,(#1294));
#1301=IFCCARTESIANPOINT((4.,4.,0.));
#1302=IFCDIRECTION((0.,0.,1.));
#1303=IFCDIRECTION((1.,0.,0.));
#1304=IFCAXIS2PLACEMENT3D(#1301,#1302,#1303);
#1305=IFCLOCALPLACEMENT($,#1304);
#1306=IFCGRID('32il_yv7L8SBfKR8WtguaN',$,'GRID-01',$,$,$,$,(#1307,#1311,#1315,#1319),(#1323,#1327,#1331),$,$);
#1307=IFCGRIDAXIS('1',$,.T.);
#1308=IFCCARTESIANPOINTLIST2D(((0.,0.),(0.,10.)));
#1309=IFCINDEXEDPOLYCURVE(#1308,$,.F.);
#1310=IFCSHAPEREPRESENTATION(#12,'Annotation','Curve2D',(#1309));
#1311=IFCGRIDAXIS('2',$,.T.);
#1312=IFCCARTESIANPOINTLIST2D(((3.3300000000000001,0.),(3.3300000000000001,10.)));
#1313=IFCINDEXEDPOLYCURVE(#1312,$,.F.);
#1314=IFCSHAPEREPRESENTATION(#12,'Annotation','Curve2D',(#1313));
#1315=IFCGRIDAXIS('3',$,.T.);
#1316=IFCCARTESIANPOINTLIST2D(((6.6600000000000001,0.),(6.6600000000000001,10.)));
#1317=IFCINDEXEDPOLYCURVE(#1316,$,.F.);
#1318=IFCSHAPEREPRESENTATION(#12,'Annotation','Curve2D',(#1317));
#1319=IFCGRIDAXIS('4',$,.T.);
#1320=IFCCARTESIANPOINTLIST2D(((10.,0.),(10.,10.)));
#1321=IFCINDEXEDPOLYCURVE(#1320,$,.F.);
#1322=IFCSHAPEREPRESENTATION(#12,'Annotation','Curve2D',(#1321));
#1323=IFCGRIDAXIS('A',$,.T.);
#1324=IFCCARTESIANPOINTLIST2D(((0.,0.),(10.,0.)));
#1325=IFCINDEXEDPOLYCURVE(#1324,$,.F.);
#1326=IFCSHAPEREPRESENTATION(#12,'Annotation','Curve2D',(#1325));
#1327=IFCGRIDAXIS('B',$,.T.);
#1328=IFCCARTESIANPOINTLIST2D(((0.,3.3300000000000001),(10.,3.3300000000000001)));
#1329=IFCINDEXEDPOLYCURVE(#1328,$,.F.);
#1330=IFCSHAPEREPRESENTATION(#12,'Annotation','Curve2D',(#1329));
#1331=IFCGRIDAXIS('C',$,.T.);
#1332=IFCCARTESIANPOINTLIST2D(((0.,6.6600000000000001),(10.,6.6600000000000001)));
#1333=IFCINDEXEDPOLYCURVE(#1332,$,.F.);
#1334=IFCSHAPEREPRESENTATION(#12,'Annotation','Curve2D',(#1333));
ENDSEC;
END-ISO-10303-21;
